<svg xmlns="http://www.w3.org/2000/svg" width="21.67" height="19.702" viewBox="0 0 21.67 19.702">
  <g id="Bathroom_icon" data-name="Bathroom icon" transform="translate(-0.079 -0.027)">
    <g id="Group_286" data-name="Group 286" transform="translate(-0.319 -0.109)">
      <path id="Path_1596" data-name="Path 1596" d="M21.67,9.359a1.477,1.477,0,0,0-1.478-1.478H3.447V2.234a1.249,1.249,0,0,1,2.132-.883l.66.66a2.432,2.432,0,0,0,.668,3.374c.047.032.1.062.145.09a.493.493,0,0,0,.6-.076l2.688-2.688a.493.493,0,0,0,.076-.6A2.432,2.432,0,0,0,7.1,1.21c-.056.032-.111.066-.164.1L6.275.655A2.234,2.234,0,0,0,2.462,2.234V7.881H1.477a1.474,1.474,0,0,0-.493,2.864V13.3a5.387,5.387,0,0,0,1.171,3.354l-.482.832a1.478,1.478,0,0,0,2.558,1.478l.333-.574a5.385,5.385,0,0,0,1.837.328h8.865a5.381,5.381,0,0,0,1.836-.327l.331.573A1.478,1.478,0,1,0,20,17.485l-.48-.833a5.385,5.385,0,0,0,1.17-3.354V10.745a1.477,1.477,0,0,0,.985-1.387M9.344,2.316,7.254,4.4a1.478,1.478,0,0,1,2.09-2.088M3.38,18.47a.493.493,0,0,1-.851-.493l.336-.584a5.4,5.4,0,0,0,.806.576Zm15.583.177a.492.492,0,0,1-.673-.178h0l-.29-.5a5.4,5.4,0,0,0,.806-.576l.335.583a.493.493,0,0,1-.178.673Zm-3.7-.916H6.4A4.438,4.438,0,0,1,1.97,13.3V10.836H19.7V13.3a4.438,4.438,0,0,1-4.433,4.433m4.925-7.88H1.477a.493.493,0,1,1,0-.985H20.193a.493.493,0,1,1,0,.985" transform="translate(0.398 0.136)" fill="#0c3c4d"/>
    </g>
  </g>
</svg>
