<svg xmlns="http://www.w3.org/2000/svg" width="22.428" height="19.56" viewBox="0 0 22.428 19.56">
  <g id="Bedroom_icon" data-name="Bedroom icon" transform="translate(0 0)">
    <g id="Group_285" data-name="Group 285" transform="translate(0 0)">
      <path id="Path_1594" data-name="Path 1594" d="M.52,19.56a.52.52,0,0,0,.52-.52V16.67H21.387v2.37a.52.52,0,0,0,1.04,0V8.057a.52.52,0,0,0-1.04,0v2.37H1.04V.52A.52.52,0,1,0,0,.52V19.04a.52.52,0,0,0,.52.52m.52-4.624H21.387v.693H1.04ZM21.387,13.9H1.04V11.467H21.387Z" transform="translate(0 0)" fill="#0c3c4d"/>
      <path id="Path_1595" data-name="Path 1595" d="M3.5,16.622H8.877a.52.52,0,0,0,.52-.52,2.728,2.728,0,0,0-2.724-2.725H3.5a.52.52,0,0,0-.52.52v2.2a.52.52,0,0,0,.52.52m.52-2.2H6.673a1.686,1.686,0,0,1,1.6,1.164H4.021Z" transform="translate(-1.495 -6.708)" fill="#0c3c4d"/>
    </g>
  </g>
</svg>
