<svg id="Icon" xmlns="http://www.w3.org/2000/svg" xmlns:xlink="http://www.w3.org/1999/xlink" width="101.076" height="90.826" viewBox="0 0 101.076 90.826">
  <defs>
    <clipPath id="clip-path">
      <rect id="Rectangle_127" data-name="Rectangle 127" width="101.076" height="90.826" fill="#0c3c4d"/>
    </clipPath>
  </defs>
  <g id="Icon-2" data-name="Icon" clip-path="url(#clip-path)">
    <path id="Path_19" data-name="Path 19" d="M329.816,129.022H341.58c1.728,0,2.653-.707,2.639-2.01-.014-1.272-.926-1.959-2.609-1.959q-11.8,0-23.606,0a5.862,5.862,0,0,0-.945.042,1.965,1.965,0,0,0-.029,3.876,5.385,5.385,0,0,0,.944.048q5.921,0,11.843,0m-18.365-1.958a1.973,1.973,0,1,0-1.981,1.946,1.988,1.988,0,0,0,1.981-1.946" transform="translate(-258.947 -105.305)" fill="#0c3c4d"/>
    <path id="Path_20" data-name="Path 20" d="M118.4,400.052q7.856,0,15.712,0a5.879,5.879,0,0,1,.944.042,1.965,1.965,0,0,1,.033,3.877,5.353,5.353,0,0,1-.944.048q-15.79,0-31.581,0a5.752,5.752,0,0,1-.866-.035,1.967,1.967,0,0,1,.045-3.9,7.386,7.386,0,0,1,.946-.03q7.856,0,15.712,0" transform="translate(-84.213 -336.879)" fill="#0c3c4d"/>
    <path id="Path_21" data-name="Path 21" d="M164.422,329.025q-5.882,0-11.764,0a6.615,6.615,0,0,1-.945-.034,1.968,1.968,0,0,1,.02-3.9,5.125,5.125,0,0,1,.709-.029q11.961,0,23.922,0a5.389,5.389,0,0,1,.709.026,1.969,1.969,0,0,1-.02,3.916,7.081,7.081,0,0,1-.867.026q-5.882,0-11.764,0" transform="translate(-126.318 -273.725)" fill="#0c3c4d"/>
    <path id="Path_22" data-name="Path 22" d="M103.953,327.134a1.973,1.973,0,1,1-1.91-1.994,1.983,1.983,0,0,1,1.91,1.994" transform="translate(-84.214 -273.796)" fill="#0c3c4d"/>
    <path id="Path_23" data-name="Path 23" d="M371.923,129.022q-5.921,0-11.843,0a5.382,5.382,0,0,1-.944-.048,1.965,1.965,0,0,1,.029-3.876,5.859,5.859,0,0,1,.944-.042q11.8,0,23.606,0c1.683,0,2.595.688,2.609,1.959.014,1.3-.91,2.01-2.639,2.01H371.923" transform="translate(-301.054 -105.305)" fill="#0c3c4d"/>
    <path id="Path_24" data-name="Path 24" d="M311.451,127.125a1.973,1.973,0,1,1-1.925-2,1.989,1.989,0,0,1,1.925,2" transform="translate(-258.947 -105.366)" fill="#0c3c4d"/>
    <path id="Path_25" data-name="Path 25" d="M67.466,0A36.962,36.962,0,0,1,93.5,11.379a25.752,25.752,0,0,1,7.519,16.614,26.5,26.5,0,0,1-5.179,17.5c-.625.876-1.368,1.668-2.01,2.533a3,3,0,0,0-.607,1.234A11.856,11.856,0,0,0,96.082,59.3c.138.159.284.311.425.467a1.931,1.931,0,0,1,.429,2.251,1.967,1.967,0,0,1-1.976,1.171A20.412,20.412,0,0,1,85.121,60.7c-1.617-.905-3.06-2.118-4.608-3.154a1.407,1.407,0,0,0-1.025-.246,44.981,44.981,0,0,1-10.54,1.853c-.576.035-.754.268-.815.8-1.056,9.141-5.812,15.981-13.319,20.994a36.041,36.041,0,0,1-23.52,5.783,41.734,41.734,0,0,1-9.664-1.821,1.073,1.073,0,0,0-1.178.324A21.655,21.655,0,0,1,6.309,90.824a2.065,2.065,0,0,1-2.192-1.2,2.03,2.03,0,0,1,.566-2.363,11.8,11.8,0,0,0,3.18-10.165,2.968,2.968,0,0,0-.655-1.457A27.169,27.169,0,0,1,.033,55.91,25.356,25.356,0,0,1,6.125,40.646,35.61,35.61,0,0,1,26.048,28.684c1.989-.465,4.043-.657,6.074-.927.5-.067.729-.214.8-.739C34.395,15.457,41.128,7.924,51.358,3.15,56.073.95,61.1.042,67.466,0M10.233,86.289c.291-.065.415-.087.535-.121a17.578,17.578,0,0,0,8.063-4.888,2.215,2.215,0,0,1,2.565-.639,37.973,37.973,0,0,0,18.258,1.886C47.33,81.405,53.935,78.14,58.86,72.052c5.724-7.076,7.1-15.005,3.695-23.529-2.455-6.14-7.008-10.437-12.84-13.352A33.261,33.261,0,0,0,23.436,33.5a29.524,29.524,0,0,0-15.4,11.247A21.251,21.251,0,0,0,4.352,61.376,24.18,24.18,0,0,0,10.45,73.3a4.142,4.142,0,0,1,.959,1.5,14.817,14.817,0,0,1,.516,5.542,17.236,17.236,0,0,1-1.693,5.952m80.548-27.64c-.085-.243-.121-.387-.182-.518a15.912,15.912,0,0,1-1.369-9.074,5.492,5.492,0,0,1,1.648-3.726,9.518,9.518,0,0,0,1.36-1.635c4.356-5.961,6.057-12.509,4.049-19.738-1.695-6.1-5.548-10.7-10.732-14.161A33.688,33.688,0,0,0,59.864,4.611a29.393,29.393,0,0,0-16.85,9.244,23.52,23.52,0,0,0-6.108,12.916c-.105.78.138.981.877,1.032A36.4,36.4,0,0,1,50.748,31.21a4.07,4.07,0,0,0,1.656.365q15.038.032,30.076.017a8.758,8.758,0,0,1,1.025.027,1.967,1.967,0,0,1,.02,3.912,8.08,8.08,0,0,1-1.025.03q-11.881,0-23.761,0c-.292,0-.584.031-.876.048l.235-.1c.9,1.028,1.786,2.068,2.7,3.081a27.483,27.483,0,0,1,7.32,15.829c.052.489.126.826.787.774a39.1,39.1,0,0,0,10.71-2.164A2.247,2.247,0,0,1,82.2,53.6a26.557,26.557,0,0,0,2.612,2.277,16.225,16.225,0,0,0,5.966,2.772" transform="translate(0)" fill="#0c3c4d"/>
  </g>
</svg>
