<svg xmlns="http://www.w3.org/2000/svg" xmlns:xlink="http://www.w3.org/1999/xlink" width="35.45" height="31.872" viewBox="0 0 35.45 31.872">
  <defs>
    <clipPath id="clip-path">
      <rect id="Rectangle_353" data-name="Rectangle 353" width="35.45" height="31.872" fill="#0c3c4d"/>
    </clipPath>
  </defs>
  <g id="Concierge_icon" data-name="Concierge icon" transform="translate(0)">
    <g id="Group_313" data-name="Group 313" transform="translate(0 0)" clip-path="url(#clip-path)">
      <path id="Path_1657" data-name="Path 1657" d="M62.411,23.6h4.127c.607,0,.931-.247.925-.705s-.325-.687-.915-.687H58.269a2.068,2.068,0,0,0-.332.015.69.69,0,0,0-.011,1.36,1.9,1.9,0,0,0,.332.017h4.154m-6.442-.687a.692.692,0,1,0-.7.682h.006a.7.7,0,0,0,.695-.682" transform="translate(-37.555 -15.28)" fill="#0c3c4d"/>
      <path id="Path_1658" data-name="Path 1658" d="M24.212,71.027h5.511a2.033,2.033,0,0,1,.332.015.69.69,0,0,1,.012,1.36,1.868,1.868,0,0,1-.331.017H18.658a2.018,2.018,0,0,1-.3-.012.691.691,0,0,1,.016-1.369,2.614,2.614,0,0,1,.332-.011h5.511" transform="translate(-12.221 -48.863)" fill="#0c3c4d"/>
      <path id="Path_1659" data-name="Path 1659" d="M31.681,59.11H27.554a2.352,2.352,0,0,1-.331-.012.691.691,0,0,1,.007-1.37,1.789,1.789,0,0,1,.249-.011h8.393a1.84,1.84,0,0,1,.249.009.691.691,0,0,1-.007,1.374,2.469,2.469,0,0,1-.3.009H31.683" transform="translate(-18.317 -39.708)" fill="#0c3c4d"/>
      <path id="Path_1660" data-name="Path 1660" d="M19.128,58.442a.693.693,0,1,1-.686-.7h.017a.7.7,0,0,1,.669.7" transform="translate(-12.207 -39.725)" fill="#0c3c4d"/>
      <path id="Path_1661" data-name="Path 1661" d="M68.515,23.606H64.36a1.9,1.9,0,0,1-.332-.017.69.69,0,0,1,.011-1.36,2.063,2.063,0,0,1,.331-.015h8.279c.591,0,.911.241.915.687s-.319.7-.925.705H68.514" transform="translate(-43.658 -15.282)" fill="#0c3c4d"/>
      <path id="Path_1662" data-name="Path 1662" d="M55.967,22.931a.692.692,0,1,1-.682-.7h.006a.7.7,0,0,1,.676.7" transform="translate(-37.552 -15.293)" fill="#0c3c4d"/>
      <path id="Path_1663" data-name="Path 1663" d="M23.662.005A12.964,12.964,0,0,1,32.794,4a9.032,9.032,0,0,1,2.637,5.828,9.294,9.294,0,0,1-1.817,6.138c-.219.307-.48.586-.706.888a1.058,1.058,0,0,0-.212.433,4.158,4.158,0,0,0,1,3.522c.049.056.1.106.149.164a.677.677,0,0,1,.15.789.689.689,0,0,1-.693.411,7.161,7.161,0,0,1-3.451-.874c-.567-.319-1.073-.744-1.616-1.106a.493.493,0,0,0-.359-.086,15.782,15.782,0,0,1-3.7.65c-.2.012-.264.095-.286.281A9.94,9.94,0,0,1,19.222,28.4a12.642,12.642,0,0,1-8.25,2.028,14.627,14.627,0,0,1-3.39-.637.377.377,0,0,0-.413.114,7.6,7.6,0,0,1-4.96,1.961.724.724,0,0,1-.769-.425.712.712,0,0,1,.2-.829,4.143,4.143,0,0,0,1.124-3.564,1.043,1.043,0,0,0-.23-.511A9.53,9.53,0,0,1,.01,19.616a8.894,8.894,0,0,1,2.137-5.354,12.489,12.489,0,0,1,6.989-4.2c.7-.164,1.418-.231,2.13-.325.176-.023.256-.076.279-.259.518-4.054,2.879-6.693,6.467-8.371A13.069,13.069,0,0,1,23.662.005M3.588,30.271c.106-.023.145-.031.188-.042A6.162,6.162,0,0,0,6.6,28.514a.777.777,0,0,1,.9-.224,13.319,13.319,0,0,0,6.4.662,10.232,10.232,0,0,0,6.736-3.674,7.782,7.782,0,0,0,1.3-8.253,8.9,8.9,0,0,0-4.5-4.683,11.666,11.666,0,0,0-9.218-.586,10.356,10.356,0,0,0-5.4,3.945,7.453,7.453,0,0,0-1.291,5.833,8.483,8.483,0,0,0,2.139,4.183A1.451,1.451,0,0,1,4,26.242a5.2,5.2,0,0,1,.181,1.944,6.047,6.047,0,0,1-.594,2.088m28.252-9.7c-.03-.085-.042-.136-.064-.182a5.58,5.58,0,0,1-.48-3.187,1.926,1.926,0,0,1,.576-1.3,3.334,3.334,0,0,0,.477-.574,7.741,7.741,0,0,0,1.423-6.923,8.729,8.729,0,0,0-3.764-4.967A11.817,11.817,0,0,0,21,1.623a10.3,10.3,0,0,0-5.911,3.241A8.252,8.252,0,0,0,12.944,9.4c-.037.273.049.344.308.362a12.77,12.77,0,0,1,4.547,1.2,1.425,1.425,0,0,0,.581.129q5.275.012,10.549.005a3.061,3.061,0,0,1,.359.01.69.69,0,0,1,.007,1.372,2.876,2.876,0,0,1-.359.011H20.6c-.106,0-.205.011-.307.017l.083-.035c.319.36.627.725.948,1.081a9.638,9.638,0,0,1,2.568,5.552c.018.171.045.29.276.271a13.7,13.7,0,0,0,3.757-.76.789.789,0,0,1,.906.2,9.33,9.33,0,0,0,.916.8,5.7,5.7,0,0,0,2.093.972" transform="translate(0 0)" fill="#0c3c4d"/>
    </g>
  </g>
</svg>
