<svg xmlns="http://www.w3.org/2000/svg" xmlns:xlink="http://www.w3.org/1999/xlink" width="28.682" height="32.484" viewBox="0 0 28.682 32.484">
  <defs>
    <clipPath id="clip-path">
      <rect id="Rectangle_347" data-name="Rectangle 347" width="28.682" height="32.484" fill="#0c3c4d"/>
    </clipPath>
  </defs>
  <g id="Flower_icon" data-name="Flower icon" transform="translate(0)">
    <g id="Group_301" data-name="Group 301" transform="translate(0 0)" clip-path="url(#clip-path)">
      <path id="Path_1611" data-name="Path 1611" d="M27.8,18.848a11.55,11.55,0,0,0-7.7.759c-3.03,1.65-4.443,5.074-4.8,6.073-.006.016-.009.033-.014.05l-.131.071V19.043A7.871,7.871,0,0,0,22,11.251V4.636C22,2.036,18.551,0,14.148,0a.716.716,0,0,0-.078.008A.723.723,0,0,0,13.992,0c-3.638,0-3.921,2.161-3.921,2.824,0,1.637,2.016,2.824,4.793,2.824a5.315,5.315,0,0,0,3.456-1.259.78.78,0,0,0-1.107-1.1,3.822,3.822,0,0,1-2.349.8c-1.974,0-3.233-.749-3.233-1.264,0-1.044,1.284-1.263,2.361-1.263a.724.724,0,0,0,.078-.008.716.716,0,0,0,.078.008c3.708,0,6.292,1.621,6.292,3.076s-2.584,3.076-6.292,3.076S7.875,6.107,7.85,4.657a2.029,2.029,0,0,1,.871-1.534A.78.78,0,0,0,7.83,1.843,3.58,3.58,0,0,0,6.291,4.591c0,.015,0,.03,0,.045v6.615a7.868,7.868,0,0,0,7.3,7.837v6.749l-.19-.1c0-.014-.007-.027-.012-.042-.361-1.011-1.775-4.435-4.811-6.085a11.627,11.627,0,0,0-7.712-.763,1.114,1.114,0,0,0-.84,1.331,1.029,1.029,0,0,0,.04.136,11.443,11.443,0,0,0,4.8,6.083h0A9.8,9.8,0,0,0,9.56,27.481a14.543,14.543,0,0,0,3.015-.329c.037-.008.072-.023.108-.034l.91.5V31.7a.78.78,0,1,0,1.56,0V27.577L16,27.118a1.065,1.065,0,0,0,.108.034,14.674,14.674,0,0,0,3.03.33,9.689,9.689,0,0,0,4.675-1.089c2.9-1.582,4.328-4.771,4.81-6.081.012-.036.023-.072.034-.117a1.126,1.126,0,0,0-.851-1.347M7.85,11.251V7.441a10.384,10.384,0,0,0,6.3,1.832A10.368,10.368,0,0,0,20.44,7.442v3.81a6.3,6.3,0,1,1-12.59,0M5.617,25.023a9.715,9.715,0,0,1-3.894-4.76,9.71,9.71,0,0,1,6.112.714A8.744,8.744,0,0,1,11.142,24.5l-4.578-2.5a.78.78,0,0,0-.747,1.37l4.6,2.509a8.891,8.891,0,0,1-4.8-.861m17.444,0,0,0a8.812,8.812,0,0,1-4.8.859l4.605-2.509a.78.78,0,1,0-.746-1.37L17.544,24.5a8.746,8.746,0,0,1,3.3-3.521,9.832,9.832,0,0,1,6.114-.7,9.672,9.672,0,0,1-3.9,4.75" transform="translate(0 0)" fill="#0c3c4d"/>
    </g>
  </g>
</svg>
