<svg xmlns="http://www.w3.org/2000/svg" xmlns:xlink="http://www.w3.org/1999/xlink" width="30.562" height="30.57" viewBox="0 0 30.562 30.57">
  <defs>
    <clipPath id="clip-path">
      <rect id="Rectangle_344" data-name="Rectangle 344" width="30.562" height="30.57" fill="#0c3c4d"/>
    </clipPath>
  </defs>
  <g id="Gold_cart_icon" data-name="Gold cart icon" transform="translate(0)">
    <g id="Group_295" data-name="Group 295" transform="translate(0 0)" clip-path="url(#clip-path)">
      <path id="Path_1604" data-name="Path 1604" d="M27.137,20.01a6.032,6.032,0,0,1,2.21.817.81.81,0,0,0,.822.043.831.831,0,0,0,.386-.751c.005-1.588.005-3.183,0-4.741,0-.625-.286-.9-.921-.9h-.006q-.92,0-1.838,0a1.1,1.1,0,0,1-.15-.015l-.063-.008-.062-.007L27.5,14.33a.7.7,0,0,1-.006-.077V11.7q0-4.927,0-9.853a.3.3,0,0,1,.069-.22.309.309,0,0,1,.219-.067c.431,0,.862,0,1.292,0h.666a.777.777,0,0,0,.769-.486.749.749,0,0,0-.076-.7A.883.883,0,0,0,29.665,0h0C23.7.009,17.646.008,11.786.008H6.023c-.594,0-1.188,0-1.781,0a.761.761,0,0,0-.8.614.781.781,0,0,0,.151.65.846.846,0,0,0,.665.28q1.377,0,2.754,0H8.88l-.048.2c-.015.062-.027.114-.043.165l-.3.955q-.165.525-.329,1.05L7.684,5.451q-1.142,3.662-2.29,7.322a.571.571,0,0,1-.282.3c-.168.082-.343.155-.512.225a6.057,6.057,0,0,0-.774.366A7.444,7.444,0,0,0,0,20.111a.754.754,0,0,0,.4.753.756.756,0,0,0,.833-.049,5.573,5.573,0,0,1,3.006-.872,6.458,6.458,0,0,1,1.306.138,6.2,6.2,0,0,1,4.623,3.934,5.914,5.914,0,0,1,.29,3.555.827.827,0,0,0,.134.708.849.849,0,0,0,.684.276q3.991.006,7.981,0a.868.868,0,0,0,.705-.286.848.848,0,0,0,.125-.734,6,6,0,0,1,.682-4.343,6.281,6.281,0,0,1,6.363-3.182m-20-7.523c.01-.044.018-.082.026-.116.014-.067.026-.122.042-.174L9.654,4.359c.255-.816.518-1.658.766-2.491a.382.382,0,0,1,.422-.319h0c1.495.006,2.989,0,4.484,0H19.1q3.244,0,6.491-.005a.379.379,0,0,1,.28.081.388.388,0,0,1,.081.282q-.008,4.988-.006,9.978v2.579H23.783q-2.629,0-5.259,0a.76.76,0,0,0-.8.433,1.638,1.638,0,0,0-.091.606c-.009.866-.01,1.783,0,2.8a.339.339,0,0,1-.071.257.294.294,0,0,1-.244.073c-1.257-.008-2.633-.008-4.2,0h0a.5.5,0,0,1-.459-.232q-1.238-1.745-2.49-3.481l-.21-.292c-.081-.113-.181-.251,0-.427q.98-.967,1.95-1.942l.772-.772a.672.672,0,0,1,.077-.062l.118-.09.048.051.228.242c.167.178.333.355.5.527a.839.839,0,0,0,1.175.063.718.718,0,0,0,.215-.51.9.9,0,0,0-.277-.632q-1.414-1.423-2.839-2.837a.737.737,0,0,0-.788-.2.771.771,0,0,0-.285,1.312c.184.187.373.37.556.548l.3.288-.488.491L8.807,13.1,8.76,13c-.3-.639-.8-.634-1.523-.421l-.128.038ZM21.5,20.062A7.77,7.77,0,0,0,18.414,26.9l0,.082H12.142l0-.082a7.746,7.746,0,0,0-3-6.769,7.534,7.534,0,0,0-7.308-1.308l-.132.04.034-.134a5.816,5.816,0,0,1,1.022-2.124,6.115,6.115,0,0,1,4.09-2.361,3.562,3.562,0,0,0,.462-.1.4.4,0,0,1,.507.18q1.108,1.559,2.225,3.112.836,1.166,1.671,2.334a.906.906,0,0,0,.789.417h0q1.658,0,3.317,0h2.487a.786.786,0,0,0,.869-.868c0-1.157,0-2.1,0-2.975a.334.334,0,0,1,.071-.245.322.322,0,0,1,.234-.072h0q4.608.007,9.215,0a.338.338,0,0,1,.256.068.278.278,0,0,1,.066.209c-.006.548-.006,1.1-.006,1.644v.725a.427.427,0,0,1-.01.082l-.025.145-.087-.029A7.493,7.493,0,0,0,21.5,20.062" transform="translate(0 0)" fill="#0c3c4d"/>
      <path id="Path_1605" data-name="Path 1605" d="M4.377,78.7H4.4a4.37,4.37,0,0,0-.026-8.741H4.355A4.37,4.37,0,0,0,4.377,78.7m-2-6.366a2.875,2.875,0,0,1,2.039-.824,2.82,2.82,0,0,1,2.775,2.852,2.776,2.776,0,0,1-.832,1.974,2.808,2.808,0,0,1-1.989.817H4.352a2.828,2.828,0,0,1-2.8-2.831,2.789,2.789,0,0,1,.829-1.989" transform="translate(-0.001 -48.129)" fill="#0c3c4d"/>
      <path id="Path_1606" data-name="Path 1606" d="M77.4,71.25a4.366,4.366,0,0,0-3.1-1.293h-.024a4.358,4.358,0,0,0-3.113,7.409,4.318,4.318,0,0,0,3.081,1.326,4.391,4.391,0,0,0,3.117-1.257A4.37,4.37,0,0,0,77.4,71.25M76.29,76.324a2.8,2.8,0,0,1-2,.828h-.007a2.822,2.822,0,1,1,.014-5.643h0a2.819,2.819,0,0,1,1.987,4.816" transform="translate(-48.105 -48.128)" fill="#0c3c4d"/>
    </g>
  </g>
</svg>
