<svg xmlns="http://www.w3.org/2000/svg" xmlns:xlink="http://www.w3.org/1999/xlink" width="32.817" height="32.656" viewBox="0 0 32.817 32.656">
  <defs>
    <clipPath id="clip-path">
      <rect id="Rectangle_348" data-name="Rectangle 348" width="32.817" height="32.656" fill="#0c3c4d"/>
    </clipPath>
  </defs>
  <g id="Groomming_icon" data-name="Groomming icon" transform="translate(0)">
    <g id="Group_303" data-name="Group 303" transform="translate(0 0)" clip-path="url(#clip-path)">
      <path id="Path_1612" data-name="Path 1612" d="M65.523,56.8h-.007a.779.779,0,0,0-.771.756.786.786,0,1,0,1.572.02.767.767,0,0,0-.232-.552.81.81,0,0,0-.563-.223" transform="translate(-44.543 -39.077)" fill="#0c3c4d"/>
      <path id="Path_1613" data-name="Path 1613" d="M43.879,35.273h0a.8.8,0,0,0-.563.242.762.762,0,0,0,.022,1.1.817.817,0,0,0,.568.219h0a.781.781,0,0,0-.023-1.562" transform="translate(-29.643 -24.267)" fill="#0c3c4d"/>
      <path id="Path_1614" data-name="Path 1614" d="M48.319,21.67h.013a.781.781,0,1,0-.57-1.332.769.769,0,0,0-.233.552.786.786,0,0,0,.239.554.8.8,0,0,0,.551.226" transform="translate(-32.698 -13.833)" fill="#0c3c4d"/>
      <path id="Path_1615" data-name="Path 1615" d="M64.067,27.537h.007a.783.783,0,0,0,.549-1.332.751.751,0,0,0-.569-.227.79.79,0,0,0-.777.762.779.779,0,0,0,.231.561.8.8,0,0,0,.559.237" transform="translate(-43.532 -17.871)" fill="#0c3c4d"/>
      <path id="Path_1616" data-name="Path 1616" d="M80.762,52.385a.775.775,0,0,0-.524,1.331.794.794,0,0,0,.558.231.778.778,0,0,0,.553-.237.792.792,0,0,0,.226-.563h0a.767.767,0,0,0-.242-.548.8.8,0,0,0-.571-.213" transform="translate(-55.039 -36.039)" fill="#0c3c4d"/>
      <path id="Path_1617" data-name="Path 1617" d="M43.379,26.554h.027a.787.787,0,0,0,.548-.218.769.769,0,0,0,.238-.556A.792.792,0,0,0,43.436,25a.78.78,0,1,0-.056,1.559" transform="translate(-29.323 -17.196)" fill="#0c3c4d"/>
      <path id="Path_1618" data-name="Path 1618" d="M74.893,38.3h.024a.774.774,0,0,0,.547-.252.793.793,0,0,0,.209-.577.779.779,0,0,0-.8-.733h0a.781.781,0,0,0,.026,1.562" transform="translate(-50.982 -25.272)" fill="#0c3c4d"/>
      <path id="Path_1619" data-name="Path 1619" d="M59.622,42.712h0a.77.77,0,0,0,.552-.232.793.793,0,0,0,.227-.575.765.765,0,0,0-.784-.754.771.771,0,0,0-.561,1.316.8.8,0,0,0,.561.245" transform="translate(-40.476 -28.311)" fill="#0c3c4d"/>
      <path id="Path_1620" data-name="Path 1620" d="M65.047,48.065h.019a.777.777,0,0,0,.764-.776.785.785,0,0,0-1.57-.008.768.768,0,0,0,.234.56.8.8,0,0,0,.553.225" transform="translate(-44.209 -31.992)" fill="#0c3c4d"/>
      <path id="Path_1621" data-name="Path 1621" d="M75.863,57.271h-.006a.78.78,0,0,0-.531,1.336.788.788,0,0,0,1.337-.546.779.779,0,0,0-.233-.562.823.823,0,0,0-.567-.229" transform="translate(-51.662 -39.401)" fill="#0c3c4d"/>
      <path id="Path_1622" data-name="Path 1622" d="M58.652,22.145h.019a.8.8,0,0,0,.556-.226.762.762,0,0,0,.236-.553.8.8,0,0,0-.76-.777.745.745,0,0,0-.547.187.788.788,0,0,0-.263.546.771.771,0,0,0,.76.822" transform="translate(-39.827 -14.163)" fill="#0c3c4d"/>
      <path id="Path_1623" data-name="Path 1623" d="M59.136,32.418h.014a.78.78,0,0,0,.784-.79.785.785,0,0,0-1.568-.031.771.771,0,0,0,.209.573.784.784,0,0,0,.56.248" transform="translate(-40.153 -21.228)" fill="#0c3c4d"/>
      <path id="Path_1624" data-name="Path 1624" d="M69.973,43.184l.052,0a.79.79,0,0,0,.735-.805.771.771,0,0,0-.259-.549.806.806,0,0,0-.579-.2.779.779,0,0,0,.051,1.557" transform="translate(-47.599 -28.637)" fill="#0c3c4d"/>
      <path id="Path_1625" data-name="Path 1625" d="M80.317,43.647h.022a.776.776,0,0,0,.762-.777.788.788,0,0,0-.245-.565.774.774,0,0,0-.566-.22.792.792,0,0,0-.755.782.77.77,0,0,0,.233.56.783.783,0,0,0,.55.219" transform="translate(-54.717 -28.953)" fill="#0c3c4d"/>
      <path id="Path_1626" data-name="Path 1626" d="M54.18,37.32l.048,0a.791.791,0,0,0,.531-.207.78.78,0,0,0,.259-.551.789.789,0,0,0-.739-.8.78.78,0,1,0-.1,1.557" transform="translate(-36.769 -24.602)" fill="#0c3c4d"/>
      <path id="Path_1627" data-name="Path 1627" d="M69.486,32.907h0a.78.78,0,0,0,.05-1.559.777.777,0,0,0-.614,1.319.791.791,0,0,0,.563.24" transform="translate(-47.264 -21.566)" fill="#0c3c4d"/>
      <path id="Path_1628" data-name="Path 1628" d="M64.533,37.787h.041a.8.8,0,0,0,.542-.208.763.763,0,0,0,.248-.542.782.782,0,0,0-.223-.566.8.8,0,0,0-.565-.242.775.775,0,0,0-.778.76.752.752,0,0,0,.735.8" transform="translate(-43.891 -24.926)" fill="#0c3c4d"/>
      <path id="Path_1629" data-name="Path 1629" d="M48.787,30.39a.764.764,0,0,0-.736.8.774.774,0,0,0,.776.762h0a.793.793,0,0,0,.563-.24.766.766,0,0,0-.027-1.11.8.8,0,0,0-.579-.208" transform="translate(-33.058 -20.907)" fill="#0c3c4d"/>
      <path id="Path_1630" data-name="Path 1630" d="M49.278,40.638a.8.8,0,0,0-.762.774.763.763,0,0,0,.226.558.8.8,0,0,0,.572.227.761.761,0,0,0,.766-.769.793.793,0,0,0-.241-.571.777.777,0,0,0-.563-.219" transform="translate(-33.378 -27.958)" fill="#0c3c4d"/>
      <path id="Path_1631" data-name="Path 1631" d="M54.732,46.034h0a.8.8,0,0,0-.564.224.782.782,0,0,0,1.1,1.11.771.771,0,0,0,.233-.562.789.789,0,0,0-.765-.772" transform="translate(-37.101 -31.67)" fill="#0c3c4d"/>
      <path id="Path_1632" data-name="Path 1632" d="M60.147,51.388l-.091-.017-.017.022a.761.761,0,0,0-.681.772.776.776,0,0,0,.777.778h.033a.794.794,0,0,0,.76-.779.76.76,0,0,0-.235-.551.807.807,0,0,0-.544-.225" transform="translate(-40.836 -35.342)" fill="#0c3c4d"/>
      <path id="Path_1633" data-name="Path 1633" d="M53.234,16.769h.03a.8.8,0,0,0,.544-.217.769.769,0,0,0,0-1.118.824.824,0,0,0-.569-.226.781.781,0,0,0-.009,1.56" transform="translate(-36.107 -10.463)" fill="#0c3c4d"/>
      <path id="Path_1634" data-name="Path 1634" d="M38.479,29.9h-.007a.78.78,0,0,0-.023,1.559h.033a.8.8,0,0,0,.542-.214.764.764,0,0,0,.02-1.111.828.828,0,0,0-.565-.234" transform="translate(-25.937 -20.57)" fill="#0c3c4d"/>
      <path id="Path_1635" data-name="Path 1635" d="M85.719,49.032h.035a.774.774,0,0,0,.751-.787.785.785,0,0,0-1.57.021.768.768,0,0,0,.242.554.79.79,0,0,0,.543.213" transform="translate(-58.432 -32.662)" fill="#0c3c4d"/>
      <path id="Path_1636" data-name="Path 1636" d="M70.456,53.439h.025a.763.763,0,0,0,.756-.778.784.784,0,0,0-1.568,0,.762.762,0,0,0,.233.554.791.791,0,0,0,.553.219" transform="translate(-47.931 -35.693)" fill="#0c3c4d"/>
      <path id="Path_1637" data-name="Path 1637" d="M71.728,62.984a.791.791,0,0,0-.757-.832.776.776,0,0,0-.568.22.782.782,0,1,0,1.325.612" transform="translate(-48.269 -42.759)" fill="#0c3c4d"/>
      <path id="Path_1638" data-name="Path 1638" d="M75.373,48.574h.01a.788.788,0,0,0,.784-.8.784.784,0,1,0-1.352.552.79.79,0,0,0,.557.245" transform="translate(-51.322 -32.347)" fill="#0c3c4d"/>
      <path id="Path_1639" data-name="Path 1639" d="M53.7,27.047h.042a.77.77,0,0,0,.775-.721.774.774,0,0,0-.744-.838.839.839,0,0,0-.57.213.783.783,0,0,0-.249.554.791.791,0,0,0,.746.791" transform="translate(-36.428 -17.536)" fill="#0c3c4d"/>
      <path id="Path_1640" data-name="Path 1640" d="M43.069,28.125a1.631,1.631,0,0,0,.811-.25,17.807,17.807,0,0,0,6.732-6.683,1.359,1.359,0,0,0-.142-1.779q-.55-.649-1.1-1.3c-.964-1.151-1.961-2.341-3-3.473a63.675,63.675,0,0,0-8.364-7.578,1.943,1.943,0,0,0-.5-.254c-.054-.021-.109-.041-.16-.065l-.183-.082-.187.073c-.061.024-.12.045-.178.065a2.476,2.476,0,0,0-.418.178,17.951,17.951,0,0,0-6.8,6.756,1.341,1.341,0,0,0,.129,1.665c.492.62,1,1.261,1.529,1.9A68.153,68.153,0,0,0,42.168,27.769a1.461,1.461,0,0,0,.9.355M31.556,15.2c-.073-.09-.143-.182-.223-.287-.116-.151-.232-.3-.354-.447a16.418,16.418,0,0,1,5.544-5.749c.081-.05.163-.1.245-.146.123-.071.246-.143.364-.221.4.331.8.658,1.2.985l.068.055c.787.64,1.6,1.3,2.377,1.983a65.169,65.169,0,0,1,8.463,9.019l.009.012A16.286,16.286,0,0,1,43.1,26.518,67.648,67.648,0,0,1,31.556,15.2" transform="translate(-20.199 -4.58)" fill="#0c3c4d"/>
      <path id="Path_1641" data-name="Path 1641" d="M32.03,13.607a71.881,71.881,0,0,0-6.337-7.118A66.406,66.406,0,0,0,19.063.751,3.3,3.3,0,0,0,15.253.48,19.926,19.926,0,0,0,7.576,8.022a3.4,3.4,0,0,0,.288,4.136c.886,1.107,1.766,2.153,2.825,3.406.316.374.637.724.978,1.1l.168.183A25.086,25.086,0,0,1,8.4,19.689c-.332.24-.666.477-1,.718A35.334,35.334,0,0,0,3.8,23.2,15.744,15.744,0,0,0,.914,26.463,5.2,5.2,0,0,0,0,29.338a3.337,3.337,0,0,0,1.253,2.5,3.482,3.482,0,0,0,2.206.822,3.134,3.134,0,0,0,.511-.042A6.767,6.767,0,0,0,6.99,31.22a21.132,21.132,0,0,0,4.062-4.2c.488-.642.966-1.293,1.443-1.943l-.127-.093.151.06c.594-.81,1.209-1.647,1.833-2.452.378-.487.8-.935,1.249-1.413l.294-.314q.688.578,1.372,1.16c1.1.936,2.247,1.9,3.394,2.834a3.406,3.406,0,0,0,4.1.267A20.153,20.153,0,0,0,32.312,17.6a3.441,3.441,0,0,0-.282-3.988m-23-2.5A1.916,1.916,0,0,1,8.6,9.849a1.77,1.77,0,0,1,.271-.934,18.5,18.5,0,0,1,7.088-7.039,2.046,2.046,0,0,1,1.01-.293,1.972,1.972,0,0,1,1.212.461,65.4,65.4,0,0,1,8.792,8.034c1.168,1.291,2.3,2.659,3.391,3.982l.35.424a1.885,1.885,0,0,1,.16,2.459,18.6,18.6,0,0,1-6.964,6.87,1.913,1.913,0,0,1-2.244-.146h0A69.316,69.316,0,0,1,9.029,11.107m3.857,6.888,1.848,1.844A27.6,27.6,0,0,0,11.7,23.474l-.12.161c-1.045,1.41-1.993,2.677-3.006,3.91a13.448,13.448,0,0,1-2.831,2.645,4.807,4.807,0,0,1-1.858.845,1.974,1.974,0,0,1-1.808-.551,1.958,1.958,0,0,1-.428-1.846A5.691,5.691,0,0,1,2.9,26.371a23.339,23.339,0,0,1,4.316-3.91c1.315-.958,2.863-2.094,4.37-3.257a11.315,11.315,0,0,0,1.071-.983l.227-.227" transform="translate(0 0)" fill="#0c3c4d"/>
      <path id="Path_1642" data-name="Path 1642" d="M10.2,86.982h0a1.385,1.385,0,0,0-1.405,1.392,1.407,1.407,0,0,0,2.392,1,1.393,1.393,0,0,0-.987-2.387m0,1.683a.3.3,0,0,1-.212-.083.291.291,0,0,1-.083-.21.291.291,0,1,1,.3.293v.11Z" transform="translate(-6.051 -59.841)" fill="#0c3c4d"/>
    </g>
  </g>
</svg>
