<svg xmlns="http://www.w3.org/2000/svg" xmlns:xlink="http://www.w3.org/1999/xlink" width="20.221" height="19.8" viewBox="0 0 20.221 19.8">
  <defs>
    <clipPath id="clip-path">
      <rect id="Rectangle_342" data-name="Rectangle 342" width="20.221" height="19.8" fill="#0c3c4d"/>
    </clipPath>
  </defs>
  <g id="Guest_icon" data-name="Guest icon" transform="translate(0 0)">
    <g id="Group_287" data-name="Group 287" transform="translate(0 0)" clip-path="url(#clip-path)">
      <path id="Path_1597" data-name="Path 1597" d="M8.368,5.518h0L5.22,5.492,2.273,2.681A1.285,1.285,0,0,0,.41,2.67,1.33,1.33,0,0,0,.4,4.574L4.522,8.7V19.624a1.335,1.335,0,0,0,1.334,1.334,1.32,1.32,0,0,0,.82-.29,1.4,1.4,0,0,0,.855.29,1.278,1.278,0,0,0,1.334-1.21V15.291a1.2,1.2,0,0,0,.342.055,1.4,1.4,0,0,0,1.334-1.459V7.941A2.311,2.311,0,0,0,8.368,5.518m0,3.769a.5.5,0,0,0-.5.5v9.964c0,.1-.149.218-.341.218s-.341-.117-.341-.218V12.8a.5.5,0,0,0-.992,0v6.826a.342.342,0,0,1-.683,0V8.495c0-.017-.008-.032-.009-.048a.413.413,0,0,0-.125-.286.194.194,0,0,0-.011-.017L1.1,3.873a.357.357,0,0,1,.022-.51c.187-.192.357-.071.469.035L4.677,6.347a.5.5,0,0,0,.338.136l3.353.028a1.325,1.325,0,0,1,1.18,1.43v5.946c0,.253-.157.467-.342.467s-.342-.214-.342-.467v-4.1a.5.5,0,0,0-.5-.5" transform="translate(0 -1.158)" fill="#0c3c4d"/>
      <path id="Path_1598" data-name="Path 1598" d="M11.4,4.2A2.1,2.1,0,1,0,9.3,2.1a2.1,2.1,0,0,0,2.1,2.1M10.289,2.1A1.109,1.109,0,1,1,11.4,3.21,1.11,1.11,0,0,1,10.289,2.1" transform="translate(-4.731 0)" fill="#0c3c4d"/>
      <path id="Path_1599" data-name="Path 1599" d="M30.191,25.457H28.824V25.27a1.18,1.18,0,0,0-1.179-1.178H25.8a1.18,1.18,0,0,0-1.178,1.178v.187H23.253a1.235,1.235,0,0,0-1.234,1.234V30.75a1.235,1.235,0,0,0,1.234,1.234h6.937a1.235,1.235,0,0,0,1.234-1.234V26.691a1.235,1.235,0,0,0-1.234-1.234m-7.179,1.234a.242.242,0,0,1,.242-.242h6.937a.243.243,0,0,1,.242.242V30.75a.243.243,0,0,1-.242.242H23.253a.242.242,0,0,1-.242-.242Zm4.82-1.234H25.612V25.27a.187.187,0,0,1,.187-.187h1.845a.187.187,0,0,1,.187.187Z" transform="translate(-11.204 -12.259)" fill="#0c3c4d"/>
    </g>
  </g>
</svg>
