<svg xmlns="http://www.w3.org/2000/svg" xmlns:xlink="http://www.w3.org/1999/xlink" width="18.85" height="31.986" viewBox="0 0 18.85 31.986">
  <defs>
    <clipPath id="clip-path">
      <rect id="Rectangle_351" data-name="Rectangle 351" width="18.85" height="31.986" fill="#0c3c4d"/>
    </clipPath>
  </defs>
  <g id="High_chair_icon" data-name="High chair icon" transform="translate(0)">
    <g id="Group_309" data-name="Group 309" transform="translate(0 0)" clip-path="url(#clip-path)">
      <path id="Path_1651" data-name="Path 1651" d="M17.566,9.307h-.906c0-.136,0-.27,0-.4,0-.381.009-.741-.01-1.106-.008-.153-.014-.306-.02-.46a9.752,9.752,0,0,0-.166-1.7A7.225,7.225,0,0,0,2.2,7.171c0,.5,0,1,0,1.52v.616H1.943c-.255,0-.5,0-.738,0a1.2,1.2,0,0,0-1.2,1.2c-.009.729-.009,1.476,0,2.22a1.186,1.186,0,0,0,1.083,1.182c.128.012.145.04.171.165.109.527.222,1.053.335,1.579.107.5.214,1,.318,1.5a2.71,2.71,0,0,0,1.376,1.9c.117.066.13.1.092.233-.1.349-.186.7-.275,1.051q-.061.243-.123.486l-.677,2.623Q1.492,26.6.681,29.764a1.751,1.751,0,0,0,1.283,2.168,1.649,1.649,0,0,0,.42.055,1.785,1.785,0,0,0,1.7-1.345c.356-1.333.621-2.362.859-3.338.052-.212.1-.256.313-.256h.007c2.81.011,5.608.011,8.318,0h.007c.208,0,.269.048.319.251.3,1.225.591,2.343.88,3.417a1.765,1.765,0,0,0,1.62,1.268,1.706,1.706,0,0,0,1.4-.648,1.9,1.9,0,0,0,.337-1.7c-.609-2.291-1.208-4.627-1.786-6.885q-.447-1.744-.9-3.488c-.032-.123-.02-.151.09-.211a2.711,2.711,0,0,0,1.389-1.92c.194-.946.41-1.951.661-3.072a.253.253,0,0,1,.107-.133,1.243,1.243,0,0,0,1.14-1.331q.007-1.013,0-2.027a1.221,1.221,0,0,0-1.28-1.257M5.4,25.6c.059-.239.115-.465.183-.67a.363.363,0,0,1,.18-.055q2.646-.008,5.293,0h1.134l.278,0c.23,0,.468,0,.7.007a.224.224,0,0,1,.124.073c.069.208.122.423.178.65l.028.114H5.369L5.4,25.6M2.375,30.657h0a.415.415,0,0,1-.4-.326.527.527,0,0,1,0-.239q.661-2.58,1.325-5.159.694-2.7,1.387-5.4c.028-.109.057-.139.152-.139H4.87c.2.011.394.008.608.006l.14,0-.775,3.012q-1.016,3.934-2.033,7.869a.428.428,0,0,1-.437.379m4.74-12.6c-.056,0-.109.007-.161.007h-.5c-.617,0-1.235,0-1.853,0a1.373,1.373,0,0,1-1.347-1.049c-.172-.743-.331-1.5-.484-2.237l-.177-.842H7.115ZM11.9,19.509c.237.945.479,1.888.721,2.832l.305,1.19H5.942v0c.015-.089.029-.173.051-.255l.317-1.228c.214-.826.427-1.652.634-2.48.038-.151.082-.174.24-.178,1.42.009,2.832.007,4.515,0,.146-.008.175.014.2.119m.445-1.445h-.452c-.048,0-.1,0-.15-.008V13.942h4.519l-.036.183c-.047.236-.092.468-.142.7l-.095.446c-.122.571-.243,1.143-.376,1.711a1.371,1.371,0,0,1-1.37,1.081q-.948.005-1.9,0m1.029,1.328c.25,0,.486-.005.7.008a.391.391,0,0,1,.1.17c.208.788.411,1.579.613,2.368l2.09,8.113a.508.508,0,0,1-.106.487.386.386,0,0,1-.378.1.453.453,0,0,1-.352-.384q-.362-1.421-.732-2.839l-2.033-7.881c-.012-.046-.022-.093-.034-.146l.136,0m-4.9-5.459h1.922v4.128H8.469ZM3.842,5.308a5.958,5.958,0,0,1,6.286-3.931,5.876,5.876,0,0,1,5.091,4.692,5.031,5.031,0,0,1,.1.955c.012.536.01,1.082.008,1.61l0,.548a1.11,1.11,0,0,1-.008.12H3.536c0-.3,0-.591-.007-.886a8.921,8.921,0,0,1,.314-3.107M17.5,12.585H1.36V10.656H17.5Z" transform="translate(0 0)" fill="#0c3c4d"/>
    </g>
  </g>
</svg>
