<svg xmlns="http://www.w3.org/2000/svg" xmlns:xlink="http://www.w3.org/1999/xlink" width="31.908" height="31.906" viewBox="0 0 31.908 31.906">
  <defs>
    <clipPath id="clip-path">
      <rect id="Rectangle_352" data-name="Rectangle 352" width="31.908" height="31.907" fill="#0c3c4d"/>
    </clipPath>
  </defs>
  <g id="Laundry_icon" data-name="Laundry icon" transform="translate(0)">
    <g id="Group_311" data-name="Group 311" transform="translate(0)" clip-path="url(#clip-path)">
      <path id="Path_1652" data-name="Path 1652" d="M31.442,23.2a8.84,8.84,0,0,1,.413,1.047,1.8,1.8,0,0,1-.353,1.527c-.068.1-.1.16-.019.278a1.936,1.936,0,0,1-.011,2.425c-.023.033-.043.069-.057.092a6.33,6.33,0,0,1,.32.576A1.986,1.986,0,0,1,29.913,31.9q-5.994,0-11.988,0a3.308,3.308,0,0,1-3.165-2.4.3.3,0,0,0-.354-.267q-5.233.008-10.467,0c-.515,0-1.032.018-1.544-.022A2.623,2.623,0,0,1,0,26.613Q0,14.625,0,2.638A2.655,2.655,0,0,1,2.637,0Q12.619,0,22.6,0a2.639,2.639,0,0,1,2.652,2.616c.013,1.428,0,2.857,0,4.285q0,2.953.008,5.906,0,3.376,0,6.753c0,.451-.024.378.392.379,1.379,0,2.758.005,4.137,0a1.958,1.958,0,0,1,1.878,1.081,1.909,1.909,0,0,1-.216,2.172c-.014.019-.023.043,0,.009m-15.5,2.725a2.545,2.545,0,0,1-.306-.293c-.125-.168-.255-.171-.447-.114a8.232,8.232,0,0,1-7.167-.964,8.328,8.328,0,0,1-3.9-8.693,7.991,7.991,0,0,1,3.217-5.407,8.4,8.4,0,0,1,8.931-1.014,8.629,8.629,0,0,1,4.746,9.9c-.05.189-.1.379-.147.579h3.048V6.648h-8.53q-6.892,0-13.784-.006c-.234,0-.292.08-.291.3q.011,4.661.009,9.322,0,5.06,0,10.12a1.359,1.359,0,0,0,1.531,1.536h8.524c1.022,0,2.044,0,3.066-.005.085,0,.227-.064.244-.125a3.487,3.487,0,0,1,1.253-1.862M23.9,5.315a.657.657,0,0,0,.022-.093c0-.806,0-1.611,0-2.417A1.336,1.336,0,0,0,22.468,1.33q-3.376,0-6.753,0H2.83a1.355,1.355,0,0,0-1.5,1.516q0,1.071,0,2.143c0,.331,0,.331.321.331q2.916,0,5.832,0,4.274,0,8.548.008,3.451,0,6.9-.01H23.9M18.011,19.94c.418,0,.809-.011,1.2,0a.275.275,0,0,0,.318-.226,7.331,7.331,0,0,0-4.037-9.163,6.856,6.856,0,0,0-3.975-.5,7.229,7.229,0,0,0-6.1,6.129A7.046,7.046,0,0,0,7.06,22.018a7.088,7.088,0,0,0,4.1,2.424,7.445,7.445,0,0,0,3.333-.085c.194-.048.312-.1.218-.348a2.206,2.206,0,0,1-.092-.588c-.014-.159,0-.321,0-.5a6,6,0,0,1-4.255-.113A5.815,5.815,0,0,1,7.253,19.9a5.97,5.97,0,0,1,1.4-7.1,6.033,6.033,0,0,1,7.465-.389,6.115,6.115,0,0,1,1.891,7.533m5.851,6.647c-1.345,0-2.691,0-4.037,0-.714,0-1.43-.015-2.141.031A1.954,1.954,0,0,0,16,28.107a2.008,2.008,0,0,0,2.043,2.473q2.317,0,4.635,0,3.563,0,7.126,0a1.03,1.03,0,0,0,.365-.061.654.654,0,0,0,.4-.68.638.638,0,0,0-.589-.582c-.388-.027-.78-.018-1.17-.018l-10.191.008a7.659,7.659,0,0,1-.772-.018.632.632,0,0,1-.565-.651.662.662,0,0,1,.573-.652,2.322,2.322,0,0,1,.3-.009h9c.914,0,1.827,0,2.741,0a.661.661,0,0,0,.048-1.321c-.1-.009-.2-.007-.3-.007H23.862m0-1.33h1.495c1.487,0,2.974,0,4.461,0a1,1,0,0,0,.47-.124.617.617,0,0,0,.259-.719.67.67,0,0,0-.7-.481h-9.32c-.856,0-1.711,0-2.567,0a.661.661,0,0,1-.034-1.321c.066,0,.133,0,.2,0q5.781,0,11.562,0c.572,0,.895-.237.89-.669s-.314-.664-.873-.664H19.76c-.607,0-1.213-.012-1.819,0a1.994,1.994,0,1,0,.091,3.986q2.915,0,5.831,0m-11.23-3.723a4.643,4.643,0,0,0,4.641-4.421c.009-.157-.021-.237-.189-.283a3.351,3.351,0,0,1-.7-.261,2.294,2.294,0,0,0-2.195,0,3.939,3.939,0,0,1-.96.329,3.4,3.4,0,0,1-2.245-.353,2.182,2.182,0,0,0-2.082.005,2.71,2.71,0,0,1-.645.257c-.259.054-.3.182-.281.416a4.676,4.676,0,0,0,4.653,4.314m4.106-6.342A4.6,4.6,0,0,0,12.2,12.656a4.548,4.548,0,0,0-3.744,2.628c.1-.037.194-.07.285-.1a3.271,3.271,0,0,1,2.73.126,2.3,2.3,0,0,0,2.281,0,2.651,2.651,0,0,1,1.462-.347c.514.041,1.022.153,1.524.233" transform="translate(0 0)" fill="#0c3c4d"/>
      <path id="Path_1653" data-name="Path 1653" d="M50.853,9.852c-1.1,0-2.191,0-3.286,0a.663.663,0,1,1-.005-1.325c.829,0,1.659.006,2.489.006,1.178,0,2.356,0,3.533,0,.2,0,.4,0,.6.005a.659.659,0,1,1-.017,1.318c-1.1,0-2.207,0-3.311,0" transform="translate(-32.245 -5.865)" fill="#0c3c4d"/>
      <path id="Path_1654" data-name="Path 1654" d="M18.371,9.183a.669.669,0,0,1-.658.672.663.663,0,1,1,.658-.672" transform="translate(-11.724 -5.867)" fill="#0c3c4d"/>
      <path id="Path_1655" data-name="Path 1655" d="M25.579,9.185A.662.662,0,0,1,26.9,9.22a.667.667,0,0,1-.678.652.675.675,0,0,1-.646-.686" transform="translate(-17.597 -5.884)" fill="#0c3c4d"/>
      <path id="Path_1656" data-name="Path 1656" d="M9.9,9.24a.658.658,0,0,1-.669.656.651.651,0,0,1-.647-.675.641.641,0,0,1,.653-.64A.648.648,0,0,1,9.9,9.24" transform="translate(-5.903 -5.903)" fill="#0c3c4d"/>
    </g>
  </g>
</svg>
