<svg xmlns="http://www.w3.org/2000/svg" width="261.873" height="98.073" viewBox="0 0 261.873 98.073">
  <g id="Logo" transform="translate(0 0)">
    <g id="Logo-2" data-name="Logo">
      <path id="Path_1568" data-name="Path 1568" d="M325.044,41.234a41.045,41.045,0,0,1-5.628,20.809,55.277,55.277,0,0,1-9.58-2.557,56.653,56.653,0,0,0-9.322-2.7c-.677-5.161.233-23.488.037-26.735,0,0-16.232-6.478-19.435-8.709-3.3,1.132-15.449,6.913-19.557,8.93,0,0-.468,20.96.025,30.234-8.315-3.468-15.857-3.426-15.975-3.716a41.24,41.24,0,1,1,79.435-15.556" transform="translate(-149.415 0.001)" fill="#94e3e1"/>
      <path id="Path_1569" data-name="Path 1569" d="M7.568,229.116a1.082,1.082,0,0,1-1.156,1H1.156a1.069,1.069,0,0,1-1.156-1,1.04,1.04,0,0,1,1.156-.982H2.661v-11.56H1.156A1.053,1.053,0,0,1,0,215.593a1.069,1.069,0,0,1,1.156-1H6.412a1.083,1.083,0,0,1,1.156,1,1.066,1.066,0,0,1-1.156.982H4.929v11.56H6.412a1.052,1.052,0,0,1,1.156.982" transform="translate(0 -132.178)" fill="#062e3c"/>
      <path id="Path_1570" data-name="Path 1570" d="M33.14,229.32l-3.817-13.785a1.083,1.083,0,0,1,1.09-1.287,1.114,1.114,0,0,1,1.069.763l1,3.621,1.745,7.285,1.679-7.023,1.047-3.883a1.114,1.114,0,0,1,1.069-.763,1.1,1.1,0,0,1,1.09,1.287c-1.244,4.471-2.6,9.292-3.817,13.763a1.155,1.155,0,0,1-1.069.742,1.1,1.1,0,0,1-1.091-.72" transform="translate(-18.045 -131.968)" fill="#062e3c"/>
      <path id="Path_1571" data-name="Path 1571" d="M72.707,215.667l-3.534,7.786v5.562a1.06,1.06,0,0,1-1.113,1.025,1.08,1.08,0,0,1-1.134-1.025v-5.54l-3.511-7.808a1.09,1.09,0,0,1,1.025-1.418,1.132,1.132,0,0,1,1.025.589l2.595,6.063,2.6-6.063a1.107,1.107,0,0,1,1.025-.589,1.055,1.055,0,0,1,1.025,1.418" transform="translate(-39.028 -131.968)" fill="#062e3c"/>
      <path id="Path_1572" data-name="Path 1572" d="M99.327,216.894v-.044a.372.372,0,0,1-.043.109l.022-.022c-.065.174-.262.72-1.112,2.727v-.022a1.019,1.019,0,0,1-1,.633,1.044,1.044,0,0,1-1-1.353c.219-.567.48-1.156.7-1.723a1.236,1.236,0,0,1-.371-.873,1.388,1.388,0,0,1,1.439-1.4,1.433,1.433,0,0,1,1.505,1.4,1.2,1.2,0,0,1-.131.567" transform="translate(-59.212 -132.388)" fill="#062e3c"/>
      <path id="Path_1573" data-name="Path 1573" d="M113.485,226.158a1.056,1.056,0,0,1,1.112-1,1.083,1.083,0,0,1,1.156,1,1.98,1.98,0,0,0,2.225,1.876c1.4,0,2.29-.785,2.29-1.963a2.785,2.785,0,0,0-1.549-2.617l-.589-.349c-1.439-.807-1.832-1.068-2.247-1.33a4.272,4.272,0,0,1-2.268-3.665c0-2.421,2.006-3.86,4.318-3.86,2.421,0,4.319,1.418,4.319,3.73a1.143,1.143,0,0,1-2.268,0c0-1-.655-1.723-2.051-1.723a1.849,1.849,0,0,0-2.05,1.832c0,.48,0,1.134,1.177,1.963a26.619,26.619,0,0,0,2.77,1.7,4.966,4.966,0,0,1,2.7,4.319c0,2.53-2.225,3.969-4.559,3.969-2.814,0-4.493-1.9-4.493-3.882" transform="translate(-69.902 -131.968)" fill="#062e3c"/>
      <path id="Path_1574" data-name="Path 1574" d="M168.1,229.32l-3.817-13.785a1.083,1.083,0,0,1,1.09-1.287,1.115,1.115,0,0,1,1.069.763l1,3.621,1.745,7.285,1.679-7.023,1.047-3.883a1.114,1.114,0,0,1,1.069-.763,1.1,1.1,0,0,1,1.091,1.287c-1.244,4.471-2.6,9.292-3.817,13.763a1.154,1.154,0,0,1-1.068.742,1.1,1.1,0,0,1-1.09-.72" transform="translate(-101.172 -131.968)" fill="#062e3c"/>
      <path id="Path_1575" data-name="Path 1575" d="M206.584,228.753a1.11,1.11,0,0,1-1.134,1.287,1.09,1.09,0,0,1-1.047-.72l-.916-2.923h-4.406c-.305,1-.567,1.941-.873,2.923a1.136,1.136,0,0,1-1.091.72,1.059,1.059,0,0,1-1.069-1.308v.022l4.144-13.785a1.188,1.188,0,0,1,1.113-.72,1.15,1.15,0,0,1,1.069.72l4.188,13.785Zm-3.686-4.362-1.592-6.02-1.636,6.02Z" transform="translate(-120.726 -131.968)" fill="#062e3c"/>
      <path id="Path_1576" data-name="Path 1576" d="M233.845,225.591V218.7a4.511,4.511,0,0,1,4.581-4.45,4.655,4.655,0,0,1,4.559,4.013,1.223,1.223,0,0,1-1.025,1.09,1.094,1.094,0,0,1-1.243-.894,2.362,2.362,0,0,0-2.29-2.2,2.4,2.4,0,0,0-2.334,2.443v6.892a2.4,2.4,0,0,0,2.334,2.443,2.379,2.379,0,0,0,2.29-2.2,1.1,1.1,0,0,1,1.243-.894,1.224,1.224,0,0,1,1.025,1.091,4.772,4.772,0,0,1-4.559,4.013,4.5,4.5,0,0,1-4.581-4.45" transform="translate(-144.038 -131.968)" fill="#062e3c"/>
      <path id="Path_1577" data-name="Path 1577" d="M276.277,228.753a1.11,1.11,0,0,1-1.134,1.287,1.09,1.09,0,0,1-1.047-.72l-.916-2.923h-4.406c-.305,1-.567,1.941-.873,2.923a1.135,1.135,0,0,1-1.091.72,1.059,1.059,0,0,1-1.068-1.308v.022l4.144-13.785a1.189,1.189,0,0,1,1.113-.72,1.149,1.149,0,0,1,1.069.72l4.188,13.785Zm-3.686-4.362L271,218.371l-1.636,6.02Z" transform="translate(-163.654 -131.968)" fill="#062e3c"/>
      <path id="Path_1578" data-name="Path 1578" d="M306.007,214.59a1.061,1.061,0,0,1,1.135.982,1.08,1.08,0,0,1-1.135,1.025H303.52v12.629a1.1,1.1,0,0,1-1.156,1.025,1.073,1.073,0,0,1-1.113-1.025V216.6h-2.486a1.08,1.08,0,0,1-1.135-1.025,1.061,1.061,0,0,1,1.135-.982Z" transform="translate(-183.327 -132.178)" fill="#062e3c"/>
      <path id="Path_1579" data-name="Path 1579" d="M338.428,229.116a1.083,1.083,0,0,1-1.156,1h-5.256a1.069,1.069,0,0,1-1.156-1,1.04,1.04,0,0,1,1.156-.982h1.5v-11.56h-1.5a1.053,1.053,0,0,1-1.156-.982,1.069,1.069,0,0,1,1.156-1h5.256a1.083,1.083,0,0,1,1.156,1,1.066,1.066,0,0,1-1.156.982h-1.484v11.56h1.484a1.053,1.053,0,0,1,1.156.982" transform="translate(-203.795 -132.178)" fill="#062e3c"/>
      <path id="Path_1580" data-name="Path 1580" d="M362.1,225.591V218.7a4.582,4.582,0,0,1,9.161,0v6.892a4.582,4.582,0,0,1-9.161,0m2.247-6.892v6.892a2.326,2.326,0,1,0,4.646,0V218.7a2.326,2.326,0,1,0-4.646,0" transform="translate(-223.037 -131.968)" fill="#062e3c"/>
      <path id="Path_1581" data-name="Path 1581" d="M406.222,229.472,401.206,219.4l.2,9.619a1.079,1.079,0,0,1-1.134,1.025,1.093,1.093,0,0,1-1.134-1.025V215.252a1.1,1.1,0,0,1,1.134-1,1.223,1.223,0,0,1,1,.567l5.017,10.033-.2-9.6a1.143,1.143,0,0,1,2.269,0v13.763a1.083,1.083,0,0,1-.873,1l.044-.022a.794.794,0,0,1-.305.044,1.2,1.2,0,0,1-1-.567" transform="translate(-245.849 -131.967)" fill="#062e3c"/>
      <path id="Path_1582" data-name="Path 1582" d="M464.452,228.941a1.1,1.1,0,0,1-1.09,1.309,1.188,1.188,0,0,1-1.091-.676l-2.05-6.718a15.686,15.686,0,0,1-2.53.065v6.325a1.077,1.077,0,0,1-1.134,1,1.091,1.091,0,0,1-1.134-1V215.571a1.074,1.074,0,0,1,1.134-.982h3.6a4.242,4.242,0,0,1,4.319,4.166,4.2,4.2,0,0,1-2.181,3.642l2.138,6.521Zm-4.3-8.027a2.162,2.162,0,0,0,0-4.319H457.69v4.319Z" transform="translate(-280.52 -132.177)" fill="#062e3c"/>
      <path id="Path_1583" data-name="Path 1583" d="M499.2,229.116a1.062,1.062,0,0,1-1.134,1h-6.086a1.055,1.055,0,0,1-1.112-1V215.571a1.053,1.053,0,0,1,1.112-.981H498a1.06,1.06,0,0,1,1.134.981A1.079,1.079,0,0,1,498,216.6h-4.864v4.166h4.253a1.079,1.079,0,0,1,1.134,1.025,1.06,1.06,0,0,1-1.134.982h-4.253v5.322h4.93a1.066,1.066,0,0,1,1.134,1.025" transform="translate(-302.351 -132.178)" fill="#062e3c"/>
      <path id="Path_1584" data-name="Path 1584" d="M530.557,229.472,525.54,219.4l.2,9.619a1.079,1.079,0,0,1-1.134,1.025,1.093,1.093,0,0,1-1.134-1.025V215.252a1.1,1.1,0,0,1,1.134-1,1.224,1.224,0,0,1,1,.567l5.017,10.033-.2-9.6a1.143,1.143,0,0,1,2.268,0v13.763a1.082,1.082,0,0,1-.872,1l.043-.022a.792.792,0,0,1-.305.044,1.2,1.2,0,0,1-1-.567" transform="translate(-322.433 -131.967)" fill="#062e3c"/>
      <path id="Path_1585" data-name="Path 1585" d="M566.095,214.59a1.06,1.06,0,0,1,1.134.982,1.08,1.08,0,0,1-1.134,1.025h-2.487v12.629a1.1,1.1,0,0,1-1.156,1.025,1.073,1.073,0,0,1-1.113-1.025V216.6h-2.486a1.08,1.08,0,0,1-1.134-1.025,1.06,1.06,0,0,1,1.134-.982Z" transform="translate(-343.53 -132.178)" fill="#062e3c"/>
      <path id="Path_1586" data-name="Path 1586" d="M599.924,228.753a1.11,1.11,0,0,1-1.134,1.287,1.09,1.09,0,0,1-1.047-.72l-.916-2.923h-4.406c-.305,1-.567,1.941-.873,2.923a1.136,1.136,0,0,1-1.091.72,1.059,1.059,0,0,1-1.069-1.308v.022l4.144-13.785a1.188,1.188,0,0,1,1.113-.72,1.15,1.15,0,0,1,1.069.72l4.188,13.785Zm-3.686-4.362-1.592-6.02-1.636,6.02Z" transform="translate(-363.006 -131.968)" fill="#062e3c"/>
      <path id="Path_1587" data-name="Path 1587" d="M636.115,228.775a1.062,1.062,0,0,1-1.134,1H628.83a1.062,1.062,0,0,1-1.134-1V215.252a1.143,1.143,0,0,1,2.268,0v12.5h5.017a1.079,1.079,0,0,1,1.134,1.025" transform="translate(-386.633 -131.968)" fill="#062e3c"/>
      <path id="Path_1588" data-name="Path 1588" d="M658.312,226.158a1.056,1.056,0,0,1,1.112-1,1.082,1.082,0,0,1,1.156,1,1.98,1.98,0,0,0,2.225,1.876c1.4,0,2.29-.785,2.29-1.963a2.785,2.785,0,0,0-1.548-2.617l-.589-.349c-1.439-.807-1.832-1.068-2.246-1.33a4.272,4.272,0,0,1-2.269-3.665c0-2.421,2.007-3.86,4.319-3.86,2.422,0,4.319,1.418,4.319,3.73a1.143,1.143,0,0,1-2.269,0c0-1-.654-1.723-2.05-1.723a1.849,1.849,0,0,0-2.05,1.832c0,.48,0,1.134,1.177,1.963a26.53,26.53,0,0,0,2.771,1.7,4.966,4.966,0,0,1,2.7,4.319c0,2.53-2.225,3.969-4.559,3.969-2.813,0-4.493-1.9-4.493-3.882" transform="translate(-405.491 -131.968)" fill="#062e3c"/>
      <path id="Path_1589" data-name="Path 1589" d="M293.851,78.548a29.422,29.422,0,0,1-12.468-2.429,35.423,35.423,0,0,0-26.537,0,33.217,33.217,0,0,1-24.936,0,31.653,31.653,0,0,0-13.268-2.579c-.719,0-1.392.018-2.038.047V66.435c.709-.037,1.462-.058,2.271-.058a29.413,29.413,0,0,1,12.468,2.429,31.649,31.649,0,0,0,13.268,2.579,1.1,1.1,0,1,0,0-2.208A28.662,28.662,0,0,1,232.129,67.5V50.939a4.792,4.792,0,0,1,2.789,2.785,1.1,1.1,0,1,0,2.043-.837,7.031,7.031,0,0,0-3.854-3.937,4.9,4.9,0,0,1,3.47-.95,1.1,1.1,0,0,0,.2-2.2,7.209,7.209,0,0,0-4.568,1.088,5.047,5.047,0,0,1,1.227-2.785,1.1,1.1,0,1,0-1.677-1.435,7.2,7.2,0,0,0-1.76,4.2,7.22,7.22,0,0,0-4.542-1.07,1.1,1.1,0,0,0,.2,2.2,4.93,4.93,0,0,1,3.35.859,6.988,6.988,0,0,0-4.092,4.028,1.1,1.1,0,1,0,2.043.837,4.734,4.734,0,0,1,2.971-2.841V66.661a31.3,31.3,0,0,0-8.27-2.223,1.1,1.1,0,0,0,.052-.319V39.928l2.83,1.257a1.091,1.091,0,0,0,.448.1,1.1,1.1,0,0,0,.449-2.114L214.6,34.358V23.8a6.1,6.1,0,0,1,3.955,3.7,1.1,1.1,0,1,0,2.044-.836,8.364,8.364,0,0,0-5.037-4.88A6.191,6.191,0,0,1,220.4,20.25a1.1,1.1,0,1,0,.2-2.2,8.542,8.542,0,0,0-5.912,1.6,6.369,6.369,0,0,1,1.6-4.132,1.1,1.1,0,1,0-1.678-1.435,8.585,8.585,0,0,0-2.134,5.513,8.579,8.579,0,0,0-5.841-1.546,1.1,1.1,0,0,0,.2,2.2,6.221,6.221,0,0,1,4.718,1.431,8.3,8.3,0,0,0-5.371,4.978,1.1,1.1,0,0,0,2.044.836,6.032,6.032,0,0,1,4.183-3.751v9.631l-10.815-4.806a1.1,1.1,0,0,0-.9,0l-23.848,10.6a1.1,1.1,0,1,0,.9,2.018l2.829-1.257V67.465c-.64-.231-1.262-.472-1.891-.717a35.413,35.413,0,0,0-26.537,0,29.408,29.408,0,0,1-12.466,2.429A29.409,29.409,0,0,1,127.2,66.748a31.651,31.651,0,0,0-13.268-2.58,1.1,1.1,0,0,0,0,2.209A29.409,29.409,0,0,1,126.4,68.806a31.643,31.643,0,0,0,13.267,2.579,31.645,31.645,0,0,0,13.267-2.579,33.212,33.212,0,0,1,24.934,0,35.418,35.418,0,0,0,26.537,0,29.742,29.742,0,0,1,7.989-2.181v7.124a31.538,31.538,0,0,0-9.022,2.37,33.209,33.209,0,0,1-24.933,0,31.654,31.654,0,0,0-13.267-2.579,1.1,1.1,0,1,0,0,2.208,29.407,29.407,0,0,1,12.466,2.429,35.415,35.415,0,0,0,26.536,0,33.21,33.21,0,0,1,24.933,0,35.421,35.421,0,0,0,26.538,0,33.216,33.216,0,0,1,24.936,0,31.654,31.654,0,0,0,13.268,2.579,1.1,1.1,0,0,0,0-2.209M219.515,38.956a1.129,1.129,0,0,0-.021.208V64.119a1.07,1.07,0,0,0,.013.128c-.82-.049-1.69-.078-2.632-.078-.8,0-1.558.02-2.271.056V36.774ZM203.607,66.748a29.982,29.982,0,0,1-7.725,2.149c.008-3.575.054-16.26.119-17.309a6.183,6.183,0,0,1,.31-1.057,5.954,5.954,0,0,1,.5-.994,5.732,5.732,0,0,1,.659-.861,5.526,5.526,0,0,1,.793-.7,5.208,5.208,0,0,1,.9-.527,4.931,4.931,0,0,1,4.1,0,5.172,5.172,0,0,1,.9.527,5.494,5.494,0,0,1,.793.7,5.782,5.782,0,0,1,.659.861,6.035,6.035,0,0,1,.5,1,6.212,6.212,0,0,1,.31,1.061c.066.941.111,11.485.118,14.077-1.038.341-1.993.711-2.935,1.078m5.142-1.71c-.01-3.39-.048-13.291-.147-13.815a8.379,8.379,0,0,0-.432-1.5,8.237,8.237,0,0,0-.686-1.362,8.023,8.023,0,0,0-.912-1.19,7.693,7.693,0,0,0-1.111-.987,7.4,7.4,0,0,0-1.286-.752,7.138,7.138,0,0,0-5.926,0,7.465,7.465,0,0,0-1.285.751,7.705,7.705,0,0,0-1.111.987,7.967,7.967,0,0,0-.912,1.191,8.185,8.185,0,0,0-.686,1.361,8.366,8.366,0,0,0-.433,1.5c-.1.553-.142,14.69-.149,17.878-.786.047-1.622.075-2.534.075a30.357,30.357,0,0,1-8.367-1V39.164a1.1,1.1,0,0,0-.021-.208l18.383-8.168,11.263,5V64.4a28.885,28.885,0,0,0-3.647.637" transform="translate(-69.499 -8.437)" fill="#062e3c"/>
    </g>
  </g>
</svg>
