<svg xmlns="http://www.w3.org/2000/svg" xmlns:xlink="http://www.w3.org/1999/xlink" width="27.521" height="27.52" viewBox="0 0 27.521 27.52">
  <defs>
    <clipPath id="clip-path">
      <rect id="Rectangle_362" data-name="Rectangle 362" width="27.521" height="27.52" fill="#0c3c4d"/>
    </clipPath>
  </defs>
  <g id="Map_icon" data-name="Map icon" transform="translate(0 0)">
    <g id="Group_314" data-name="Group 314" transform="translate(0 0)" clip-path="url(#clip-path)">
      <path id="Path_1664" data-name="Path 1664" d="M8.74,14.568c-.237-.444-.455-.836-.659-1.237a14.6,14.6,0,0,1-1.39-3.664A8.329,8.329,0,0,1,8.137,2.657,6.626,6.626,0,0,1,12.964.04,7.032,7.032,0,0,1,19.2,2.461a7.566,7.566,0,0,1,1.71,3.765,10.057,10.057,0,0,1-1.01,6.13c-.308.669-.662,1.317-1,1.975-.032.062-.065.125-.116.222.1.006.174.013.247.013.9,0,1.807.007,2.709,0a.881.881,0,0,1,.9.591q2.394,5.6,4.8,11.193a.809.809,0,0,1-.777,1.17H.86a.809.809,0,0,1-.78-1.167q2.4-5.6,4.8-11.193a.893.893,0,0,1,.918-.595c.889.01,1.778,0,2.666,0h.28m5.013,4.389c.066-.076.106-.116.14-.161.722-.98,1.468-1.944,2.159-2.946a25.316,25.316,0,0,0,2.685-4.861,8.021,8.021,0,0,0,.512-4.815,5.512,5.512,0,0,0-4.968-4.525,5.306,5.306,0,0,0-4.5,1.6A6.526,6.526,0,0,0,8.207,9a10.966,10.966,0,0,0,1.13,3.232,34.429,34.429,0,0,0,3.429,5.448c.316.423.645.837.987,1.278M9.165,20.934a.588.588,0,0,0,.054.086q2.393,2.4,4.79,4.785a.39.39,0,0,0,.246.091c.444.009.888.01,1.333,0a.868.868,0,0,0,.367-.088q3.8-1.963,7.59-3.932c.142-.073.159-.141.1-.281q-1.127-2.612-2.243-5.229a.266.266,0,0,0-.289-.187c-1.017.007-2.035.01-3.053,0a.448.448,0,0,0-.431.236,42.593,42.593,0,0,1-3.186,4.269.809.809,0,0,1-1.355.008q-.458-.542-.9-1.1a.191.191,0,0,0-.285-.065c-.468.248-.942.485-1.413.727l-1.328.681m2.6,4.95a1.2,1.2,0,0,0-.079-.1Q9.708,23.8,7.734,21.827a.191.191,0,0,0-.263-.031Q5.189,22.969,2.905,24.14a.466.466,0,0,0-.2.207c-.206.456-.4.918-.6,1.38a.936.936,0,0,0-.039.158ZM3.78,21.867l7.293-3.733-.183-.267c-.345-.5-.7-1-1.032-1.506a.364.364,0,0,0-.351-.183c-1,.007-1.992.015-2.987,0a.411.411,0,0,0-.452.305c-.708,1.675-1.428,3.343-2.144,5.013-.043.1-.08.207-.144.375m20.58,1.407-4.939,2.566.02.045h6.037L24.36,23.274" transform="translate(0 0)" fill="#0c3c4d"/>
      <path id="Path_1665" data-name="Path 1665" d="M20.3,9.039a2.422,2.422,0,1,1-2.418-2.421A2.424,2.424,0,0,1,20.3,9.039m-2.423-.8a.812.812,0,0,0-.808.8.81.81,0,0,0,1.62,0,.812.812,0,0,0-.811-.8" transform="translate(-4.12 -1.764)" fill="#0c3c4d"/>
    </g>
  </g>
</svg>
