<svg id="Paddle_board_icon" data-name="Paddle board icon" xmlns="http://www.w3.org/2000/svg" xmlns:xlink="http://www.w3.org/1999/xlink" width="22.232" height="29.154" viewBox="0 0 22.232 29.154">
  <defs>
    <clipPath id="clip-path">
      <rect id="Rectangle_345" data-name="Rectangle 345" width="22.232" height="29.154" fill="#0c3c4d"/>
    </clipPath>
  </defs>
  <g id="Group_297" data-name="Group 297" transform="translate(0 0)" clip-path="url(#clip-path)">
    <path id="Path_1607" data-name="Path 1607" d="M47.677,16.026q-.032-.691-.061-1.382c-.044-1.023-.089-2.08-.153-3.12a32.037,32.037,0,0,0-.715-5.15,13.778,13.778,0,0,0-1.474-4A4.837,4.837,0,0,0,43.559.545c-.094-.054-.19-.108-.288-.159a2.853,2.853,0,0,0-.922-.324c-.019,0-.037,0-.055,0a1.967,1.967,0,0,0-1.2.448l-.1.065A5.841,5.841,0,0,0,39.019,3a15.029,15.029,0,0,0-1.145,3.42,28.658,28.658,0,0,0-.615,4c-.129,1.6-.2,3.168-.24,4.358a38.576,38.576,0,0,0,.407,7.578,36.8,36.8,0,0,0,1.546,6.224.768.768,0,0,0,.864.61h4.914a.806.806,0,0,0,.945-.661,36.821,36.821,0,0,0,1.634-6.968,42.953,42.953,0,0,0,.348-5.529ZM42.44,1.552a3.4,3.4,0,0,1,1.582,1.5A9.955,9.955,0,0,1,45.231,6.2a36.064,36.064,0,0,1,.617,3.575c.166,1.5.254,3.026.339,4.507l.016.269c.029.5.021,1.022.014,1.523,0,.233-.007.466-.007.7h0a35.05,35.05,0,0,1-.507,5.871,35.536,35.536,0,0,1-1.225,5c-.034.106-.053.106-.133.11q-1.077-.005-2.154-.005-.941,0-1.882,0c-.1.007-.125-.009-.163-.128A36.761,36.761,0,0,1,38.44,14.868l.03-.727c.046-1.146.093-2.331.213-3.486.147-1.415.361-2.816.637-4.166a10.623,10.623,0,0,1,1.245-3.359,3.561,3.561,0,0,1,1.618-1.566.389.389,0,0,1,.257-.013" transform="translate(-25.445 -0.038)" fill="#0c3c4d"/>
    <path id="Path_1608" data-name="Path 1608" d="M6.84,19.6a4.716,4.716,0,0,1-1.088-2.706A.678.678,0,0,0,5,16.181H4.973a.223.223,0,0,1-.077-.007.258.258,0,0,1-.01-.1c.006-.452,0-.9,0-1.356V1.584c0-.053,0-.111,0-.147.037,0,.1,0,.154,0h.449c.317,0,.633,0,.949,0a.708.708,0,0,0,.55-1.2A.751.751,0,0,0,6.451,0Q4.175,0,1.9,0a.738.738,0,0,0-.738.72.683.683,0,0,0,.192.492.783.783,0,0,0,.568.219c.467,0,.949.01,1.425,0h.024a.255.255,0,0,1,.085.008.229.229,0,0,1,.014.11c-.007,1.287-.006,2.574,0,3.861V8.75q0,3.657,0,7.313c0,.09-.007.11,0,.111a.181.181,0,0,1-.09.007.778.778,0,0,0-.43.1.733.733,0,0,0-.333.625A4.16,4.16,0,0,1,2.1,18.753a4.033,4.033,0,0,1-.35.528A7.8,7.8,0,0,0,.172,22.61a7.455,7.455,0,0,0,.093,3.573,4.106,4.106,0,0,0,3.876,2.955A3.273,3.273,0,0,0,4.67,29.1,4.014,4.014,0,0,0,8,26.437,6.506,6.506,0,0,0,8.327,23.6a7.325,7.325,0,0,0-1.487-4M3.919,17.713c.022-.129.033-.128.113-.114a.593.593,0,0,0,.116,0h.2a.992.992,0,0,1,.049.192,6.106,6.106,0,0,0,1.164,2.54A6.349,6.349,0,0,1,6.843,25.3a2.7,2.7,0,0,1-2.636,2.4,2.621,2.621,0,0,1-2.378-1.487,4.833,4.833,0,0,1-.4-2.271,6.284,6.284,0,0,1,1.375-3.7,5.689,5.689,0,0,0,1.115-2.538" transform="translate(0 0)" fill="#0c3c4d"/>
    <path id="Path_1609" data-name="Path 1609" d="M45.731,62.91a.866.866,0,0,0-.643.211.853.853,0,0,0-.205.64A16.294,16.294,0,0,0,46,69.555a.742.742,0,0,0,.8.559l.925,0,.925,0a.734.734,0,0,0,.808-.553,16.461,16.461,0,0,0,1.118-5.817.725.725,0,0,0-.806-.83c-.475,0-.95,0-1.425,0h-1.2q-.705,0-1.41,0Zm2.6,5.7c-.03.084-.044.087-.11.084-.287-.008-.578-.007-.865,0-.087,0-.092-.012-.106-.066-.07-.268-.144-.535-.217-.8-.154-.56-.313-1.139-.436-1.713a10.147,10.147,0,0,1-.154-1.15c-.019-.2-.038-.4-.063-.6,0-.013,0-.022,0-.03a.356.356,0,0,1,.048,0c.333,0,.666,0,1,0h.81c.321,0,.642,0,.963,0h.042a.369.369,0,0,1,0,.04,15.545,15.545,0,0,1-.91,4.234" transform="translate(-30.878 -43.28)" fill="#0c3c4d"/>
  </g>
</svg>
