<svg xmlns="http://www.w3.org/2000/svg" xmlns:xlink="http://www.w3.org/1999/xlink" width="36.125" height="31.391" viewBox="0 0 36.125 31.391">
  <defs>
    <clipPath id="clip-path">
      <rect id="Rectangle_350" data-name="Rectangle 350" width="36.125" height="31.391" fill="#0c3c4d"/>
    </clipPath>
  </defs>
  <g id="Pet_icon" data-name="Pet icon" transform="translate(0)">
    <g id="Group_307" data-name="Group 307" transform="translate(0)" clip-path="url(#clip-path)">
      <path id="Path_1646" data-name="Path 1646" d="M40.795,54.336,34.739,48.6a7.389,7.389,0,0,0-10.159,0l-6.061,5.732a5.29,5.29,0,0,0,3.521,9.1c.085,0,.171,0,.257-.006a13.969,13.969,0,0,0,3.409-.649,13.418,13.418,0,0,1,3.949-.673,15.8,15.8,0,0,1,4.367.69,18.88,18.88,0,0,0,3.151.631,5.12,5.12,0,0,0,4.872-3.33,5.063,5.063,0,0,0-1.249-5.764m-.039,5.258h0a3.84,3.84,0,0,1-3.7,2.433,23.89,23.89,0,0,1-2.58-.568,17.687,17.687,0,0,0-4.816-.748,16.234,16.234,0,0,0-4.084.695,15.077,15.077,0,0,1-3.436.627H22.11a3.862,3.862,0,0,1-2.629-6.69l6.056-5.7a6.006,6.006,0,0,1,8.244,0l6.056,5.733a3.842,3.842,0,0,1,.918,4.22" transform="translate(-11.608 -32.046)" fill="#0c3c4d"/>
      <path id="Path_1647" data-name="Path 1647" d="M98.391,27.221a2.915,2.915,0,0,0-1.823-1.353h0c-2.526-.5-4.295,2.335-4.745,4.5-.733,3.642.735,5.693,2.408,6.057a2.722,2.722,0,0,0,.582.062c1.584,0,3.408-1.337,4.156-4.535a6.441,6.441,0,0,0-.575-4.734m-3.858,7.855c-1.008-.222-1.861-1.694-1.35-4.4.519-2.3,1.789-3.441,2.829-3.441a1.358,1.358,0,0,1,.261.025c.92.18,1.821,1.439,1.331,4.395-.672,2.666-2.063,3.642-3.071,3.42" transform="translate(-63.037 -17.757)" fill="#0c3c4d"/>
      <path id="Path_1648" data-name="Path 1648" d="M65.628,12.063c2.4,0,4.353-2.712,4.353-6.049C69.858,1.881,67.639,0,65.629,0h0C63.618,0,61.4,1.883,61.281,6.016c0,3.335,1.95,6.047,4.347,6.047m0-10.7c2.009.141,2.924,2.508,2.924,4.65s-.917,4.513-2.918,4.651c-2.011-.138-2.927-2.506-2.927-4.647s.914-4.512,2.921-4.653" transform="translate(-42.159 0)" fill="#0c3c4d"/>
      <path id="Path_1649" data-name="Path 1649" d="M6.552,35.4a6.222,6.222,0,0,0,.767-5.024c-.432-2.107-2.236-5-4.749-4.5-2.254.57-2.762,3.175-2.512,5.233.318,2.617,1.931,5.406,4.3,5.42a2.84,2.84,0,0,0,2.2-1.126m-.989-1.033a1.544,1.544,0,0,1-.941.732c-1.53.228-2.659-1.634-3.062-3.46s-.159-3.967,1.3-4.4c.066-.007.13-.009.194-.009,1.51,0,2.484,1.755,2.9,3.448a5.106,5.106,0,0,1-.393,3.685" transform="translate(0 -17.762)" fill="#0c3c4d"/>
      <path id="Path_1650" data-name="Path 1650" d="M30.894,12.064c2.4,0,4.347-2.712,4.347-6.049C35.122,1.884,32.9,0,30.9,0h0c-2.01,0-4.229,1.882-4.353,6.016,0,3.335,1.953,6.047,4.353,6.047M27.971,6.017c0-2.142.915-4.509,2.924-4.65,2.007.141,2.921,2.507,2.921,4.646S32.9,10.53,30.9,10.667c-2.012-.137-2.929-2.507-2.929-4.65" transform="translate(-18.259 -0.001)" fill="#0c3c4d"/>
    </g>
  </g>
</svg>
