<svg xmlns="http://www.w3.org/2000/svg" xmlns:xlink="http://www.w3.org/1999/xlink" width="27.506" height="27.52" viewBox="0 0 27.506 27.52">
  <defs>
    <clipPath id="clip-path">
      <rect id="Rectangle_363" data-name="Rectangle 363" width="27.506" height="27.52" fill="#0c3c4d"/>
    </clipPath>
  </defs>
  <g id="Phone_icon" data-name="Phone icon" transform="translate(0 0)">
    <g id="Group_315" data-name="Group 315" transform="translate(0 0)" clip-path="url(#clip-path)">
      <path id="Path_1666" data-name="Path 1666" d="M21.078,27.52a11.907,11.907,0,0,1-3.793-.746A26.381,26.381,0,0,1,10.36,22.9a29.816,29.816,0,0,1-8.141-9.418A19.033,19.033,0,0,1,.247,8.493,7.692,7.692,0,0,1,.113,5.3a4.047,4.047,0,0,1,1.12-2.135C2.022,2.373,2.8,1.57,3.614.807A2.652,2.652,0,0,1,7.359.744c.936.842,1.806,1.756,2.7,2.642.4.4.821.783,1.18,1.217a2.7,2.7,0,0,1-.109,3.772c-.629.675-1.3,1.317-1.955,1.964a.262.262,0,0,0-.055.364,14.193,14.193,0,0,0,2.135,3.1,20.121,20.121,0,0,0,4.429,3.939c.391.249.814.448,1.218.677.12.069.181,0,.255-.07.58-.584,1.158-1.17,1.744-1.749a3.28,3.28,0,0,1,1.57-.962,2.632,2.632,0,0,1,2.232.481,5.527,5.527,0,0,1,.612.538q1.594,1.581,3.179,3.17a3.246,3.246,0,0,1,.956,1.646,2.629,2.629,0,0,1-.5,2.109,4.322,4.322,0,0,1-.458.539c-.642.654-1.3,1.292-1.933,1.954a4.659,4.659,0,0,1-3.487,1.442m-.249-1.54a3.169,3.169,0,0,0,2.694-1.014c.552-.562,1.105-1.122,1.657-1.684.155-.158.315-.314.456-.484a1.177,1.177,0,0,0,.007-1.606c-.1-.122-.21-.235-.321-.346q-.5-.5-1-1-1.1-1.1-2.2-2.2a1.291,1.291,0,0,0-2.087,0c-.1.1-.2.2-.3.3-.624.621-1.239,1.251-1.877,1.858a1.012,1.012,0,0,1-1.2.2,18.4,18.4,0,0,1-1.816-.966A21.741,21.741,0,0,1,9.89,14.591a14.849,14.849,0,0,1-2.278-3.469,1.275,1.275,0,0,1,.282-1.67c.137-.137.275-.272.411-.409C8.879,8.464,9.466,7.9,10.025,7.3a1.169,1.169,0,0,0,.06-1.684c-.1-.116-.2-.224-.306-.331Q8.2,3.707,6.62,2.128a3.111,3.111,0,0,0-.269-.246A1.165,1.165,0,0,0,4.994,1.7,2.188,2.188,0,0,0,4.5,2.08c-.687.68-1.367,1.367-2.047,2.054a2.888,2.888,0,0,0-.731,1.121,4.488,4.488,0,0,0-.142,1.891,13.025,13.025,0,0,0,1.1,3.8,24.3,24.3,0,0,0,2.909,4.971,28.608,28.608,0,0,0,5.61,5.711,25.624,25.624,0,0,0,6.457,3.658,10.257,10.257,0,0,0,3.168.7" transform="translate(0 0)" fill="#0c3c4d"/>
    </g>
  </g>
</svg>
