<svg xmlns="http://www.w3.org/2000/svg" width="28.933" height="32.154" viewBox="0 0 28.933 32.154">
  <g id="Icon" transform="translate(0)">
    <path id="Path_1480" data-name="Path 1480" d="M28.31,25.054,24,19.727a2.823,2.823,0,0,0-3.969-.432l-.005,0-3.062,2.466a.613.613,0,0,1-.789-.015,31.469,31.469,0,0,1-3.85-4.01,31.663,31.663,0,0,1-2.807-4.1.6.6,0,0,1,.144-.775L12.8,10.339a2.823,2.823,0,0,0,.427-3.966L8.924,1.028A2.893,2.893,0,0,0,4.949.6L3.256,1.963A8.636,8.636,0,0,0,.184,10.491,25.91,25.91,0,0,0,2.64,17.2a32.783,32.783,0,0,0,3.581,5.458,32.529,32.529,0,0,0,5.041,5.05,24.717,24.717,0,0,0,6.8,3.946,8.3,8.3,0,0,0,1.966.455,8.739,8.739,0,0,0,6.4-1.916l1.455-1.172a2.824,2.824,0,0,0,.427-3.966" transform="translate(0 0)" fill="#0c3c4d"/>
  </g>
</svg>
