<svg xmlns="http://www.w3.org/2000/svg" width="55.617" height="2.827" viewBox="0 0 55.617 2.827">
  <path id="Squiggle_line" data-name="Squiggle line" d="M55.165,0h0a3.65,3.65,0,0,0-2.579,1.05,2.743,2.743,0,0,1-1.977.835,2.749,2.749,0,0,1-1.978-.835c-.037-.037-.081-.061-.119-.1V.946c-.048-.043-.1-.072-.151-.111a3.619,3.619,0,0,0-.4-.292C47.917.515,47.869.5,47.823.471a3.649,3.649,0,0,0-.494-.235C47.3.225,47.265.219,47.234.208a3.67,3.67,0,0,0-.572-.15c-.017,0-.035,0-.052-.005a3.675,3.675,0,0,0-3.135,1,2.742,2.742,0,0,1-1.97.833,2.743,2.743,0,0,1-1.97-.834,3.7,3.7,0,0,0-5.167,0,2.74,2.74,0,0,1-1.97.834,2.742,2.742,0,0,1-1.968-.833,3.647,3.647,0,0,0-.394-.319c-.025-.018-.045-.04-.07-.057a3.574,3.574,0,0,0-.406-.239c-.04-.021-.078-.043-.119-.063A3.687,3.687,0,0,0,28.979.19l-.07-.021A3.6,3.6,0,0,0,27.852,0a.325.325,0,0,0-.039.008A.359.359,0,0,0,27.775,0,3.649,3.649,0,0,0,25.2,1.051a2.743,2.743,0,0,1-1.977.835,2.748,2.748,0,0,1-1.978-.835,3.688,3.688,0,0,0-5.156,0,2.743,2.743,0,0,1-1.976.834,2.744,2.744,0,0,1-1.976-.835,3.688,3.688,0,0,0-5.154,0A2.742,2.742,0,0,1,5,1.885a2.743,2.743,0,0,1-1.976-.834A3.642,3.642,0,0,0,.453,0a.471.471,0,0,0,0,.942,2.741,2.741,0,0,1,1.975.835A3.643,3.643,0,0,0,5,2.827a3.645,3.645,0,0,0,2.577-1.05,2.759,2.759,0,0,1,3.9-.051l.051.051a3.643,3.643,0,0,0,2.577,1.05,3.645,3.645,0,0,0,2.577-1.05,2.759,2.759,0,0,1,3.9-.051l.051.051a3.649,3.649,0,0,0,2.579,1.05A3.648,3.648,0,0,0,25.8,1.777,2.748,2.748,0,0,1,27.775.943a.359.359,0,0,0,.039-.008.325.325,0,0,0,.039.008A2.75,2.75,0,0,1,28.39,1h0c.046.01.091.027.137.039a2.637,2.637,0,0,1,.309.1c.076.029.151.065.224.1s.129.067.192.1c.079.048.158.095.232.15.041.031.078.066.117.1a2.612,2.612,0,0,1,.216.191,3.643,3.643,0,0,0,2.576,1.05H32.4a3.645,3.645,0,0,0,2.577-1.05,2.747,2.747,0,0,1,3.891-.051l.051.051A3.645,3.645,0,0,0,41.5,2.827h.01a3.643,3.643,0,0,0,2.577-1.05,2.747,2.747,0,0,1,3.891-.051l.051.051a3.647,3.647,0,0,0,2.58,1.05,3.648,3.648,0,0,0,2.578-1.05A2.749,2.749,0,0,1,55.165.943a.471.471,0,0,0,0-.942" transform="translate(0 0)" fill="#f0b0d6"/>
</svg>
