<svg xmlns="http://www.w3.org/2000/svg" xmlns:xlink="http://www.w3.org/1999/xlink" width="59.726" height="59.457" viewBox="0 0 59.726 59.457">
  <defs>
    <clipPath id="clip-path">
      <rect id="Rectangle_364" data-name="Rectangle 364" width="59.726" height="59.457" fill="#0c3c4d"/>
    </clipPath>
  </defs>
  <g id="Icon" transform="translate(0 0)">
    <g id="Group_322" data-name="Group 322" transform="translate(0 0)" clip-path="url(#clip-path)">
      <path id="Path_1668" data-name="Path 1668" d="M24.874,32.085a2.422,2.422,0,0,0,.67.075H46.207a2.5,2.5,0,0,0,.454-.031,1.451,1.451,0,0,0,1.218-1.57c-.025-.407-.239-1.352-1.674-1.352H25.657c-.155,0-.312,0-.467.01a1.461,1.461,0,0,0-.316,2.869" transform="translate(-0.474 -0.582)" fill="#0c3c4d"/>
      <path id="Path_1669" data-name="Path 1669" d="M46.736,40.372a1.388,1.388,0,0,0,1.146-1.431c0-.917-.636-1.465-1.7-1.466H25.707c-.2,0-.406,0-.606.022a1.488,1.488,0,0,0-1.306,1.386,1.46,1.46,0,0,0,1.126,1.478,3.729,3.729,0,0,0,.841.072c4.42,0,7.655,0,11.008,0h9.181a3.8,3.8,0,0,0,.785-.06" transform="translate(-0.474 -0.747)" fill="#0c3c4d"/>
      <path id="Path_1670" data-name="Path 1670" d="M28.532,23.855c.139.01.279.011.416.009H44.61q.945,0,1.891-.009a1.4,1.4,0,0,0,1.444-1.313,1.433,1.433,0,0,0-1.188-1.59,3.84,3.84,0,0,0-.639-.045c-7,0-10.086,0-17.09,0a2.909,2.909,0,0,0-.876.115,1.423,1.423,0,0,0-.966,1.572,1.441,1.441,0,0,0,1.348,1.258" transform="translate(-0.542 -0.416)" fill="#0c3c4d"/>
      <path id="Path_1671" data-name="Path 1671" d="M59.711,18.188A8.255,8.255,0,0,0,51.477,10c-1.2,0-2.392,0-3.59,0H43.432q-7.4,0-14.8.006a.482.482,0,0,1-.182-.018.3.3,0,0,1-.061-.1,2.815,2.815,0,0,0-2.211-1.6c-1.937-.3-3.873-.591-5.814-.85a.684.684,0,0,1-.647-.426c-.848-1.773-1.7-3.5-2.532-5.139A3.739,3.739,0,0,0,16.291.708a2.982,2.982,0,0,0-2.5-.651,3.164,3.164,0,0,0-2.162,1.7C10.7,3.575,9.8,5.418,9.052,6.982a.683.683,0,0,1-.628.454c-1.533.2-3.064.432-4.594.66l-1.17.173a3.039,3.039,0,0,0-1.7,5.218C2.219,14.743,3.5,15.98,4.775,17.219l.459.444c.189.183.21.284.182.431l-.027.157c-.311,1.714-.621,3.427-.9,5.147a5.171,5.171,0,0,0-.067,1.827,2.971,2.971,0,0,0,1.567,2.1,3.021,3.021,0,0,0,2.666.02c.687-.322,1.359-.676,2.072-1.053.1-.05.192-.1.29-.152V30.69q0,5.8,0,11.6A8.344,8.344,0,0,0,19.608,50.8h.012q6.1-.007,12.191,0h5.248V52.86l0,4.883a1.57,1.57,0,0,0,.968,1.614,1.487,1.487,0,0,0,.525.1,1.763,1.763,0,0,0,1.221-.608q3.935-3.947,7.891-7.871a.758.758,0,0,1,.441-.17c.568-.018,1.136-.015,1.708-.014.63,0,1.264,0,1.9-.02a8.179,8.179,0,0,0,8-8.259q.024-12.165,0-24.329m-19.7,31.488c0-1.324-.516-1.84-1.833-1.84l-10.715,0q-3.918,0-7.837,0h-.007a5.338,5.338,0,0,1-4.953-2.722,5.475,5.475,0,0,1-.695-2.92l0-17.367a.424.424,0,0,1,.166-.385.478.478,0,0,1,.463.038q2.533,1.323,5.058,2.662a3.3,3.3,0,0,0,2.321.441,3.026,3.026,0,0,0,2.387-3.5Q23.9,21.135,23.359,18.2a.479.479,0,0,1,.157-.526c.969-.933,1.931-1.875,2.892-2.816l.925-.906c.036-.035.076-.068.116-.1a1.572,1.572,0,0,0,.387-.428c.226-.41.511-.484,1.272-.476q7.8.021,15.609.013h6.545a5.269,5.269,0,0,1,5.443,4.523,5.573,5.573,0,0,1,.053.992q.006,11.917,0,23.831a5.263,5.263,0,0,1-5.27,5.518c-1.2.053-2.427.032-3.615.014l-.254,0a2.386,2.386,0,0,0-1.711.7c-1.6,1.625-3.22,3.236-4.838,4.847l-1.055,1.051V49.676ZM8,20.441c.122-.678.243-1.357.348-2.037A3.061,3.061,0,0,0,7.4,15.652q-2.085-2.03-4.168-4.063L3.146,11.5c-.067-.063-.175-.168-.2-.132a.736.736,0,0,1,.4-.2c1.592-.256,3.476-.549,5.4-.787a3.517,3.517,0,0,0,2.973-2.118c.811-1.74,1.671-3.433,2.482-5.019a.706.706,0,0,1,.184-.2.718.718,0,0,1,.156.184C15.57,5.24,16.381,6.879,17.1,8.381a3.43,3.43,0,0,0,2.89,1.993c1.972.252,3.883.55,5.494.808a.713.713,0,0,1,.228.088.639.639,0,0,1-.129.239C24.3,12.795,22.925,14.137,21.5,15.5a3.3,3.3,0,0,0-1.049,3.2c.378,1.986.7,3.979.966,5.669a.591.591,0,0,1-.028.24.622.622,0,0,1-.224-.045c-1.49-.759-3.22-1.647-4.913-2.586a3.545,3.545,0,0,0-3.693-.017c-1.206.673-2.458,1.32-3.669,1.946L7.554,24.6a.381.381,0,0,1-.223.059.247.247,0,0,1-.033-.127Z" transform="translate(0 0)" fill="#0c3c4d"/>
    </g>
  </g>
</svg>
