<svg id="Icon" xmlns="http://www.w3.org/2000/svg" width="98.704" height="75.663" viewBox="0 0 98.704 75.663">
  <path id="Path_17" data-name="Path 17" d="M1.3,179.983c.649.381,1.314.762,1.958,1.131,1.019.583,2.074,1.187,3.1,1.812a3.76,3.76,0,0,1,1.331,1.4,25.67,25.67,0,0,0,5.348,7.039,2.008,2.008,0,0,1,.671,2.11,7.373,7.373,0,0,0,6.106,8.692,1.759,1.759,0,0,1,1.7,1.644,6.856,6.856,0,0,0,4.741,5.8,12.95,12.95,0,0,0,2.888.507c.509.052,1.036.106,1.576.185l.4.059.186.36c1.56,3.018,3.128,4.632,5.261,5.151a9.221,9.221,0,0,0,3.9-.04l.607-.114.257.562c.029.063.057.123.084.179.062.131.12.254.174.391a7.641,7.641,0,0,0,3.549,4,7.389,7.389,0,0,0,1.158.487,7.3,7.3,0,0,0,6.208-.825,13.61,13.61,0,0,0,2.435-2.219c.26-.277.529-.563.8-.839a1.513,1.513,0,0,1,1.734-.473,7.345,7.345,0,0,0,9.049-3.333,1.4,1.4,0,0,1,1.741-.764,7.411,7.411,0,0,0,9.784-6.739,1.464,1.464,0,0,1,1.148-1.447c.061-.017.125-.032.193-.045a7.9,7.9,0,0,0,4.179-2.183,7.214,7.214,0,0,0,2.086-5.095,7.611,7.611,0,0,0-.34-2.218,8.333,8.333,0,0,0-.751-1.717,1.412,1.412,0,0,1,.452-2.018,26.339,26.339,0,0,0,5.531-6.311,3.136,3.136,0,0,1,1.222-1.1c1.071-.523,2.167-1.032,3.227-1.524.712-.33,1.424-.661,2.132-1,1.608-.764,1.946-1.681,1.206-3.271Q96.1,173.435,93.8,168.5c-3.132-6.719-6.384-13.685-9.837-21.076a2.033,2.033,0,0,0-3.017-1.1c-.294.131-.59.259-.886.386a21.746,21.746,0,0,0-2.594,1.251,5.966,5.966,0,0,1-5.622.6c-.02-.008-.077-.022-.119-.033-.065-.016-.13-.032-.193-.052a16.507,16.507,0,0,0-12.992,1.3c-2.1,1.082-4.28,2.076-6.388,3.036-1.121.511-2.281,1.039-3.411,1.573a1.886,1.886,0,0,1-1.9-.088c-1.716-1.014-3.477-2.024-5.18-3l-.545-.313a14.714,14.714,0,0,0-9.3-1.889c-1.443.177-2.753.377-4,.611-.106.02-.21.034-.312.045a3.069,3.069,0,0,1-1.956-.456c-1.569-.939-3.147-1.843-4.9-2.843a2.047,2.047,0,0,0-3.151.816C11.722,157.24,5.991,167.169.45,176.786a2.033,2.033,0,0,0,.851,3.2m21.794,17.656a3.056,3.056,0,0,1-2.026.751,3.587,3.587,0,0,1-2.628-1.2,3.439,3.439,0,0,1-.108-4.6c1.166-1.283,2.459-2.573,3.842-3.832a3.646,3.646,0,0,1,1.38-.7c.088-.028.188-.06.229-.078l.171-.075.187.01a3.6,3.6,0,0,1,3.405,1.974,3.125,3.125,0,0,1-.325,3.625,47.926,47.926,0,0,1-4.126,4.125m9.778,6c-.138.138-.272.282-.407.426a8.493,8.493,0,0,1-1.147,1.08,8.717,8.717,0,0,1-1.369.789c-.109.053-.2.1-.278.139l-.185.1-.211-.005a4.115,4.115,0,0,1-2.817-.952,3.467,3.467,0,0,1-.752-1.032,3.216,3.216,0,0,1,.445-3.768c2.028-2.135,4.061-4.169,6.043-6.045a3.387,3.387,0,0,1,4.807.242,3.514,3.514,0,0,1-.061,4.938c-.943.982-1.923,1.955-2.87,2.9q-.6.6-1.2,1.192m7.763,7.763q-.11.1-.228.185a3.166,3.166,0,0,1-1.88.6,3.582,3.582,0,0,1-2.566-1.1,3.449,3.449,0,0,1-.4-4.413,3.152,3.152,0,0,1,.2-.25c1.156-1.273,2.448-2.565,3.838-3.84a3.8,3.8,0,0,1,1.355-.721c.087-.03.185-.065.227-.084l.168-.078.186.005a3.649,3.649,0,0,1,3.494,1.99,3.189,3.189,0,0,1-.393,3.694,54.86,54.86,0,0,1-4.009,4.013M52.5,215.177a10.415,10.415,0,0,1-1.8,1.8,3.32,3.32,0,0,1-2.077.755,3.652,3.652,0,0,1-1.656-.42,3.412,3.412,0,0,1-1.923-3.039v-.049a4.979,4.979,0,0,1,1.927-3.5,4.253,4.253,0,0,1,3.241-1.141,3.525,3.525,0,0,1,2.77,2.185,3.441,3.441,0,0,1-.48,3.41m-5.122-55.789c4.593-2.135,9.342-4.343,14-6.543.29-.137.579-.259.869-.373.05-.019.1-.041.149-.06l.021-.007a11.513,11.513,0,0,1,7.251-.319c.846.228,1.716.441,2.557.647.6.147,1.2.293,1.792.446a2.813,2.813,0,0,0,2.055-.2c.615-.306,1.244-.594,1.852-.873.59-.271,1.2-.55,1.786-.841a1.333,1.333,0,0,1,2.018.714c2.748,5.927,5.556,11.947,8.272,17.769l4.09,8.767-.712.335c-.427.2-.843.4-1.252.6-.956.46-1.86.894-2.8,1.291a3.6,3.6,0,0,0-1.821,1.691,20.726,20.726,0,0,1-5.269,6.154l-.657.527-10.3-14.707.846-.4c.4-.19.794-.373,1.18-.554.872-.408,1.7-.793,2.513-1.2A2.675,2.675,0,0,0,76.22,172a2.069,2.069,0,0,0,.222-.191,1.994,1.994,0,0,0-.316-2.959,2.578,2.578,0,0,0-.407-.214,2.1,2.1,0,0,0-1.8.128q-1.152.542-2.309,1.077-1.311.609-2.62,1.224a11.682,11.682,0,0,1-5,1.164,10.644,10.644,0,0,1-9.4-5.8c-.825-1.5-1.7-1.795-3.246-1.078q-2.933,1.363-5.863,2.734-3.321,1.551-6.644,3.1a5.937,5.937,0,0,1-1.623.546,3.779,3.779,0,0,1-.968.02,3.511,3.511,0,0,1-1.169-6.592c1.52-.76,3.083-1.484,4.594-2.184l1.341-.623q3.178-1.483,6.358-2.959m-27.3-8.668,1.45.83,1.44.824c.407.232.755.435,1.058.611a7.375,7.375,0,0,0,1.8.9,5.618,5.618,0,0,0,1.8-.155c.438-.071.983-.159,1.656-.254.355-.05.709-.105,1.063-.161a22.22,22.22,0,0,1,3.577-.362,10.3,10.3,0,0,1,1.108.064,8.891,8.891,0,0,1,1.125.2,16.964,16.964,0,0,1,4.62,2.149c.412.244.837.5,1.269.74l1.335.751-2.743,1.288c-.963.452-1.873.879-2.782,1.308-.493.233-.99.46-1.487.687-1.1.5-2.243,1.024-3.315,1.6A7.479,7.479,0,0,0,39.525,175.2c3.178-1.381,6.368-2.9,9.452-4.368l1.4-.664a2.481,2.481,0,0,1,.652-.216,1.6,1.6,0,0,1,1.51.6q.064.068.128.145a14.483,14.483,0,0,0,13.674,5.321q.073-.009.144-.015a1.687,1.687,0,0,1,1.642.805c4,5.731,8.144,11.652,12.67,18.1a5.544,5.544,0,0,1,.582,1.034,3.506,3.506,0,0,1,.293,1.5,3.416,3.416,0,0,1-.4,1.456,3.542,3.542,0,0,1-1.972,1.733,3.449,3.449,0,0,1-.875.183,3.5,3.5,0,0,1-1.775-.332l-.059-.03c-.048-.024-.1-.048-.143-.074a3.79,3.79,0,0,1-1.218-1.083c-1.06-1.452-2.1-2.95-3.106-4.4q-.674-.971-1.351-1.94l-1.616-2.3q-1.822-2.6-3.64-5.2a1.989,1.989,0,0,0-1.9-.981,1.883,1.883,0,0,0-1.6,1.07,2.08,2.08,0,0,0,.069,1.872,2.506,2.506,0,0,0,.154.255c1.307,1.9,2.659,3.827,3.966,5.687q.818,1.164,1.635,2.329.833,1.19,1.668,2.38c1.281,1.825,2.6,3.713,3.9,5.578a3.532,3.532,0,0,1,.1,4.151,3.315,3.315,0,0,1-3.82,1.37,4.932,4.932,0,0,1-2.188-1.664c-2.41-3.379-4.83-6.834-7.17-10.175q-1.841-2.629-3.687-5.255a3.865,3.865,0,0,0-.873-.949,1.91,1.91,0,0,0-2.411.231,1.958,1.958,0,0,0-.614,1.193,1.9,1.9,0,0,0,.322,1.264c.648.981,1.329,1.962,2,2.925l.673.956q.5.709,1,1.419.994,1.422,1.993,2.842c1.339,1.906,2.723,3.878,4.068,5.83a3.818,3.818,0,0,1,.679,2.936,3.635,3.635,0,0,1-3.469,2.792,3.144,3.144,0,0,1-1.138-.211,3.293,3.293,0,0,1-1.963-2.239,7.391,7.391,0,0,0-6.247-5.4,1.412,1.412,0,0,1-1.365-1.309,7.22,7.22,0,0,0-6.181-6.466,1.442,1.442,0,0,1-1.21-1.49l-.005-.053a7.434,7.434,0,0,0-7.426-6.782h-.018a8.053,8.053,0,0,0-1.5.162,1.283,1.283,0,0,1-1.575-.919,7.338,7.338,0,0,0-4.514-4.43,7.552,7.552,0,0,0-7.96,1.954l-2.579,2.689-.569-.518a16.155,16.155,0,0,1-4.2-5.468q-.152-.35-.322-.671a6.983,6.983,0,0,0-2.6-2.787,8.208,8.208,0,0,0-.88-.463,13.963,13.963,0,0,1-1.645-.928c-.238-.149-.485-.3-.736-.451l-.675-.4Z" transform="translate(0 -146.036)" fill="#0c3c4d"/>
</svg>
