<svg id="Logo" xmlns="http://www.w3.org/2000/svg" xmlns:xlink="http://www.w3.org/1999/xlink" width="277.552" height="103.944" viewBox="0 0 277.552 103.944">
  <defs>
    <clipPath id="clip-path">
      <rect id="Rectangle_325" data-name="Rectangle 325" width="277.552" height="103.944" fill="#fff"/>
    </clipPath>
  </defs>
  <g id="Group_276" data-name="Group 276" clip-path="url(#clip-path)">
    <path id="Path_1568" data-name="Path 1568" d="M329.982,43.7a43.5,43.5,0,0,1-5.965,22.055,58.587,58.587,0,0,1-10.154-2.71,60.045,60.045,0,0,0-9.88-2.863c-.717-5.47.247-24.894.039-28.336,0,0-17.2-6.866-20.6-9.23-3.494,1.2-16.374,7.327-20.728,9.465,0,0-.5,22.215.026,32.044-8.813-3.676-16.806-3.631-16.932-3.939A43.709,43.709,0,1,1,329.982,43.7" transform="translate(-143.837 0.001)" fill="#fff" opacity="0.3"/>
    <path id="Path_1569" data-name="Path 1569" d="M8.022,229.986A1.147,1.147,0,0,1,6.8,231.049H1.225A1.133,1.133,0,0,1,0,229.986a1.1,1.1,0,0,1,1.225-1.04h1.6V216.694h-1.6A1.117,1.117,0,0,1,0,215.653a1.134,1.134,0,0,1,1.225-1.063H6.8a1.147,1.147,0,0,1,1.225,1.063,1.13,1.13,0,0,1-1.225,1.04H5.224v12.252H6.8a1.115,1.115,0,0,1,1.225,1.04" transform="translate(0 -127.244)" fill="#fff"/>
    <path id="Path_1570" data-name="Path 1570" d="M33.37,230.223l-4.045-14.61a1.148,1.148,0,0,1,1.155-1.364,1.181,1.181,0,0,1,1.133.809l1.064,3.838,1.849,7.721,1.78-7.444,1.11-4.115a1.181,1.181,0,0,1,1.133-.809,1.167,1.167,0,0,1,1.156,1.364c-1.318,4.739-2.751,9.848-4.046,14.587a1.224,1.224,0,0,1-1.133.786,1.161,1.161,0,0,1-1.156-.763" transform="translate(-17.372 -127.041)" fill="#fff"/>
    <path id="Path_1571" data-name="Path 1571" d="M73.266,215.751,69.521,224v5.9a1.123,1.123,0,0,1-1.179,1.086,1.144,1.144,0,0,1-1.2-1.086v-5.872l-3.721-8.276a1.155,1.155,0,0,1,1.086-1.5,1.2,1.2,0,0,1,1.087.624l2.75,6.426,2.751-6.426a1.173,1.173,0,0,1,1.086-.624,1.118,1.118,0,0,1,1.087,1.5" transform="translate(-37.571 -127.041)" fill="#fff"/>
    <path id="Path_1572" data-name="Path 1572" d="M99.518,217.011v-.046a.394.394,0,0,1-.046.116l.023-.023c-.069.185-.277.763-1.179,2.89v-.024a1.08,1.08,0,0,1-1.063.671,1.106,1.106,0,0,1-1.064-1.434c.232-.6.509-1.225.74-1.826a1.309,1.309,0,0,1-.393-.925,1.472,1.472,0,0,1,1.526-1.479,1.518,1.518,0,0,1,1.6,1.479,1.276,1.276,0,0,1-.139.6" transform="translate(-57.001 -127.446)" fill="#fff"/>
    <path id="Path_1573" data-name="Path 1573" d="M113.485,226.871a1.119,1.119,0,0,1,1.179-1.063,1.148,1.148,0,0,1,1.226,1.063,2.1,2.1,0,0,0,2.358,1.988c1.48,0,2.428-.832,2.428-2.081A2.952,2.952,0,0,0,119.033,224l-.624-.37c-1.526-.856-1.942-1.132-2.381-1.41a4.528,4.528,0,0,1-2.4-3.884c0-2.566,2.126-4.092,4.577-4.092,2.566,0,4.578,1.5,4.578,3.953a1.211,1.211,0,0,1-2.4,0c0-1.064-.694-1.826-2.174-1.826a1.96,1.96,0,0,0-2.173,1.942c0,.509,0,1.2,1.248,2.081a28.216,28.216,0,0,0,2.936,1.8,5.263,5.263,0,0,1,2.867,4.577c0,2.682-2.358,4.207-4.832,4.207-2.982,0-4.762-2.011-4.762-4.115" transform="translate(-67.292 -127.041)" fill="#fff"/>
    <path id="Path_1574" data-name="Path 1574" d="M168.326,230.223l-4.046-14.61a1.148,1.148,0,0,1,1.156-1.364,1.181,1.181,0,0,1,1.133.809l1.063,3.838,1.85,7.721,1.78-7.444,1.11-4.115a1.18,1.18,0,0,1,1.133-.809,1.167,1.167,0,0,1,1.156,1.364c-1.318,4.739-2.751,9.848-4.046,14.587a1.223,1.223,0,0,1-1.132.786,1.16,1.16,0,0,1-1.156-.763" transform="translate(-97.395 -127.041)" fill="#fff"/>
    <path id="Path_1575" data-name="Path 1575" d="M207.218,229.622a1.176,1.176,0,0,1-1.2,1.364,1.155,1.155,0,0,1-1.11-.763l-.971-3.1h-4.67c-.324,1.063-.6,2.057-.925,3.1a1.2,1.2,0,0,1-1.156.763,1.123,1.123,0,0,1-1.133-1.387v.023l4.392-14.61a1.259,1.259,0,0,1,1.179-.763,1.219,1.219,0,0,1,1.133.763l4.438,14.61ZM203.311,225l-1.688-6.38L199.889,225Z" transform="translate(-116.219 -127.041)" fill="#fff"/>
    <path id="Path_1576" data-name="Path 1576" d="M233.845,226.27v-7.3a4.781,4.781,0,0,1,4.855-4.716,4.934,4.934,0,0,1,4.832,4.254,1.3,1.3,0,0,1-1.087,1.156,1.16,1.16,0,0,1-1.317-.948,2.5,2.5,0,0,0-2.428-2.335,2.548,2.548,0,0,0-2.474,2.59v7.3a2.547,2.547,0,0,0,2.474,2.589,2.522,2.522,0,0,0,2.428-2.335,1.16,1.16,0,0,1,1.317-.948,1.3,1.3,0,0,1,1.087,1.156,5.057,5.057,0,0,1-4.832,4.254,4.767,4.767,0,0,1-4.855-4.716" transform="translate(-138.661 -127.041)" fill="#fff"/>
    <path id="Path_1577" data-name="Path 1577" d="M276.911,229.622a1.176,1.176,0,0,1-1.2,1.364,1.155,1.155,0,0,1-1.11-.763l-.971-3.1h-4.67c-.324,1.063-.6,2.057-.925,3.1a1.2,1.2,0,0,1-1.156.763,1.122,1.122,0,0,1-1.132-1.387v.023l4.392-14.61a1.26,1.26,0,0,1,1.179-.763,1.218,1.218,0,0,1,1.133.763l4.438,14.61ZM273,225l-1.688-6.38L269.583,225Z" transform="translate(-157.545 -127.041)" fill="#fff"/>
    <path id="Path_1578" data-name="Path 1578" d="M306.508,214.59a1.124,1.124,0,0,1,1.2,1.04,1.144,1.144,0,0,1-1.2,1.086h-2.635V230.1a1.165,1.165,0,0,1-1.225,1.086,1.137,1.137,0,0,1-1.179-1.086V216.717h-2.635a1.144,1.144,0,0,1-1.2-1.086,1.124,1.124,0,0,1,1.2-1.04Z" transform="translate(-176.484 -127.244)" fill="#fff"/>
    <path id="Path_1579" data-name="Path 1579" d="M338.882,229.986a1.147,1.147,0,0,1-1.225,1.063h-5.571a1.133,1.133,0,0,1-1.225-1.063,1.1,1.1,0,0,1,1.225-1.04h1.595V216.694h-1.595a1.117,1.117,0,0,1-1.225-1.04,1.133,1.133,0,0,1,1.225-1.063h5.571a1.148,1.148,0,0,1,1.225,1.063,1.13,1.13,0,0,1-1.225,1.04h-1.572v12.252h1.572a1.116,1.116,0,0,1,1.225,1.04" transform="translate(-196.187 -127.244)" fill="#fff"/>
    <path id="Path_1580" data-name="Path 1580" d="M362.1,226.27v-7.3a4.857,4.857,0,0,1,9.709,0v7.3a4.857,4.857,0,0,1-9.709,0m2.381-7.3v7.3a2.465,2.465,0,1,0,4.924,0v-7.3a2.465,2.465,0,1,0-4.924,0" transform="translate(-214.711 -127.041)" fill="#fff"/>
    <path id="Path_1581" data-name="Path 1581" d="M406.647,230.384,401.33,219.7l.208,10.195a1.144,1.144,0,0,1-1.2,1.086,1.158,1.158,0,0,1-1.2-1.086V215.312a1.171,1.171,0,0,1,1.2-1.064,1.3,1.3,0,0,1,1.063.6l5.317,10.634-.208-10.172a1.211,1.211,0,0,1,2.4,0V229.9a1.148,1.148,0,0,1-.925,1.063l.046-.023a.842.842,0,0,1-.324.046,1.274,1.274,0,0,1-1.064-.6" transform="translate(-236.671 -127.041)" fill="#fff"/>
    <path id="Path_1582" data-name="Path 1582" d="M464.992,229.8a1.161,1.161,0,0,1-1.156,1.387,1.259,1.259,0,0,1-1.156-.717l-2.173-7.12a16.628,16.628,0,0,1-2.682.069v6.7a1.141,1.141,0,0,1-1.2,1.064,1.156,1.156,0,0,1-1.2-1.064V215.629a1.138,1.138,0,0,1,1.2-1.04h3.814A4.5,4.5,0,0,1,465.015,219a4.447,4.447,0,0,1-2.312,3.86l2.266,6.912Zm-4.554-8.507a2.292,2.292,0,0,0,0-4.577h-2.612v4.577Z" transform="translate(-270.048 -127.243)" fill="#fff"/>
    <path id="Path_1583" data-name="Path 1583" d="M499.7,229.986a1.126,1.126,0,0,1-1.2,1.063h-6.45a1.119,1.119,0,0,1-1.179-1.063V215.63a1.116,1.116,0,0,1,1.179-1.04h6.381a1.124,1.124,0,0,1,1.2,1.04,1.144,1.144,0,0,1-1.2,1.086h-5.156v4.416h4.508a1.143,1.143,0,0,1,1.2,1.086,1.123,1.123,0,0,1-1.2,1.04h-4.508v5.64h5.225a1.13,1.13,0,0,1,1.2,1.087" transform="translate(-291.064 -127.244)" fill="#fff"/>
    <path id="Path_1584" data-name="Path 1584" d="M530.981,230.384l-5.317-10.68.208,10.195a1.144,1.144,0,0,1-1.2,1.086,1.159,1.159,0,0,1-1.2-1.086V215.312a1.171,1.171,0,0,1,1.2-1.064,1.3,1.3,0,0,1,1.063.6l5.317,10.634-.208-10.172a1.211,1.211,0,0,1,2.4,0V229.9a1.147,1.147,0,0,1-.924,1.063l.046-.023a.838.838,0,0,1-.324.046,1.274,1.274,0,0,1-1.063-.6" transform="translate(-310.396 -127.041)" fill="#fff"/>
    <path id="Path_1585" data-name="Path 1585" d="M566.6,214.59a1.124,1.124,0,0,1,1.2,1.04,1.144,1.144,0,0,1-1.2,1.086H563.96V230.1a1.165,1.165,0,0,1-1.225,1.086,1.137,1.137,0,0,1-1.179-1.086V216.717h-2.635a1.144,1.144,0,0,1-1.2-1.086,1.124,1.124,0,0,1,1.2-1.04Z" transform="translate(-330.706 -127.244)" fill="#fff"/>
    <path id="Path_1586" data-name="Path 1586" d="M600.557,229.622a1.176,1.176,0,0,1-1.2,1.364,1.155,1.155,0,0,1-1.11-.763l-.971-3.1h-4.67c-.324,1.063-.6,2.057-.925,3.1a1.2,1.2,0,0,1-1.156.763,1.123,1.123,0,0,1-1.133-1.387v.023l4.392-14.61a1.259,1.259,0,0,1,1.179-.763,1.219,1.219,0,0,1,1.133.763l4.438,14.61ZM596.651,225l-1.688-6.38L593.229,225Z" transform="translate(-349.454 -127.041)" fill="#fff"/>
    <path id="Path_1587" data-name="Path 1587" d="M636.619,229.645a1.126,1.126,0,0,1-1.2,1.063H628.9a1.126,1.126,0,0,1-1.2-1.063V215.312a1.211,1.211,0,0,1,2.4,0v13.246h5.317a1.144,1.144,0,0,1,1.2,1.086" transform="translate(-372.199 -127.041)" fill="#fff"/>
    <path id="Path_1588" data-name="Path 1588" d="M658.312,226.871a1.119,1.119,0,0,1,1.179-1.063,1.147,1.147,0,0,1,1.225,1.063,2.1,2.1,0,0,0,2.358,1.988c1.48,0,2.427-.832,2.427-2.081A2.952,2.952,0,0,0,663.86,224l-.625-.37c-1.526-.856-1.942-1.132-2.381-1.41a4.528,4.528,0,0,1-2.4-3.884c0-2.566,2.127-4.092,4.578-4.092,2.566,0,4.577,1.5,4.577,3.953a1.212,1.212,0,0,1-2.4,0c0-1.064-.693-1.826-2.172-1.826a1.96,1.96,0,0,0-2.173,1.942c0,.509,0,1.2,1.248,2.081a28.119,28.119,0,0,0,2.936,1.8,5.263,5.263,0,0,1,2.866,4.577c0,2.682-2.358,4.207-4.832,4.207-2.982,0-4.762-2.011-4.762-4.115" transform="translate(-390.353 -127.041)" fill="#fff"/>
    <path id="Path_1589" data-name="Path 1589" d="M304.689,82.43a31.184,31.184,0,0,1-13.215-2.574,37.544,37.544,0,0,0-28.126,0,35.206,35.206,0,0,1-26.429,0,33.549,33.549,0,0,0-14.062-2.733c-.762,0-1.475.019-2.16.05v-7.58c.751-.039,1.549-.061,2.407-.061a31.174,31.174,0,0,1,13.215,2.574,33.545,33.545,0,0,0,14.062,2.734,1.17,1.17,0,1,0,0-2.34,30.378,30.378,0,0,1-11.111-1.779V53.169a5.079,5.079,0,0,1,2.956,2.951,1.17,1.17,0,1,0,2.165-.887,7.452,7.452,0,0,0-4.084-4.173,5.2,5.2,0,0,1,3.678-1.007,1.17,1.17,0,0,0,.208-2.332,7.641,7.641,0,0,0-4.842,1.153,5.349,5.349,0,0,1,1.3-2.951,1.17,1.17,0,1,0-1.778-1.521,7.636,7.636,0,0,0-1.865,4.453,7.652,7.652,0,0,0-4.814-1.134,1.17,1.17,0,0,0,.208,2.332,5.225,5.225,0,0,1,3.55.911,7.406,7.406,0,0,0-4.337,4.269,1.17,1.17,0,1,0,2.165.887,5.018,5.018,0,0,1,3.149-3.011V69.832a33.174,33.174,0,0,0-8.765-2.356,1.163,1.163,0,0,0,.055-.338V41.5l3,1.332a1.157,1.157,0,0,0,.475.1,1.171,1.171,0,0,0,.475-2.24l-11.472-5.1V24.4a6.46,6.46,0,0,1,4.192,3.922,1.17,1.17,0,1,0,2.166-.887,8.865,8.865,0,0,0-5.339-5.172,6.562,6.562,0,0,1,5.118-1.621,1.17,1.17,0,1,0,.208-2.332,9.053,9.053,0,0,0-6.266,1.7,6.75,6.75,0,0,1,1.7-4.379,1.17,1.17,0,1,0-1.778-1.521,9.1,9.1,0,0,0-2.262,5.843,9.092,9.092,0,0,0-6.19-1.638,1.17,1.17,0,1,0,.208,2.332,6.593,6.593,0,0,1,5,1.517,8.8,8.8,0,0,0-5.693,5.276,1.17,1.17,0,0,0,2.166.887,6.393,6.393,0,0,1,4.433-3.975V34.555l-11.463-5.093a1.169,1.169,0,0,0-.95,0L180.669,40.692a1.17,1.17,0,1,0,.95,2.139l3-1.332V70.684c-.678-.245-1.338-.5-2-.76a37.533,37.533,0,0,0-28.126,0A31.169,31.169,0,0,1,141.277,72.5a31.17,31.17,0,0,1-13.213-2.574A33.546,33.546,0,0,0,114,67.19a1.17,1.17,0,0,0,0,2.341,31.17,31.17,0,0,1,13.214,2.574,33.537,33.537,0,0,0,14.062,2.734,33.539,33.539,0,0,0,14.061-2.734,35.2,35.2,0,0,1,26.427,0,37.538,37.538,0,0,0,28.126,0,31.523,31.523,0,0,1,8.467-2.312v7.551a33.426,33.426,0,0,0-9.562,2.512,35.2,35.2,0,0,1-26.426,0,33.549,33.549,0,0,0-14.062-2.733,1.17,1.17,0,1,0,0,2.34,31.168,31.168,0,0,1,13.212,2.574,37.535,37.535,0,0,0,28.124,0,35.2,35.2,0,0,1,26.426,0,37.542,37.542,0,0,0,28.127,0,35.205,35.205,0,0,1,26.429,0,33.549,33.549,0,0,0,14.063,2.734,1.17,1.17,0,0,0,0-2.341M225.9,40.468a1.2,1.2,0,0,0-.022.221V67.138a1.13,1.13,0,0,0,.014.135c-.869-.052-1.791-.083-2.789-.083-.852,0-1.651.021-2.407.059V38.156ZM209.042,69.924a31.777,31.777,0,0,1-8.188,2.278c.009-3.789.057-17.233.126-18.346a6.552,6.552,0,0,1,.328-1.12,6.311,6.311,0,0,1,.531-1.054,6.074,6.074,0,0,1,.7-.913,5.856,5.856,0,0,1,.841-.747,5.52,5.52,0,0,1,.954-.558,5.226,5.226,0,0,1,4.34,0,5.481,5.481,0,0,1,.955.559,5.824,5.824,0,0,1,.841.747,6.129,6.129,0,0,1,.7.913,6.4,6.4,0,0,1,.532,1.055,6.584,6.584,0,0,1,.328,1.125c.07,1,.118,12.173.125,14.92-1.1.362-2.112.753-3.111,1.143m5.45-1.812c-.011-3.593-.051-14.086-.156-14.642a8.881,8.881,0,0,0-.458-1.588,8.729,8.729,0,0,0-.727-1.443,8.5,8.5,0,0,0-.966-1.261,8.154,8.154,0,0,0-1.178-1.046,7.838,7.838,0,0,0-1.363-.8,7.566,7.566,0,0,0-6.281,0,7.912,7.912,0,0,0-1.362.8,8.167,8.167,0,0,0-1.178,1.046,8.444,8.444,0,0,0-.967,1.262,8.675,8.675,0,0,0-.727,1.443,8.866,8.866,0,0,0-.459,1.59c-.111.587-.151,15.57-.158,18.948-.833.05-1.719.08-2.686.08a32.175,32.175,0,0,1-8.868-1.064V40.689a1.162,1.162,0,0,0-.023-.221l19.483-8.657,11.938,5.3V67.437a30.615,30.615,0,0,0-3.865.675" transform="translate(-66.904 -8.122)" fill="#fff"/>
  </g>
</svg>
