<svg xmlns="http://www.w3.org/2000/svg" width="89.314" height="99.277" viewBox="0 0 89.314 99.277">

  <symbol id="tree">
    <path id="Path_1503" data-name="Path 1503" d="M63.667,63.66a176,176,0,0,0-9.408,32.212c.9,0,1.736-.005,2.571,0,1.062.008,1.723.564,1.73,1.444s-.646,1.458-1.7,1.458q-10.569,0-21.138,0a1.474,1.474,0,0,1-1.673-1.413c-.023-.883.643-1.475,1.689-1.489.9-.012,1.8-.013,2.7-.023.046,0,.091-.039.183-.08.016-.175.05-.374.049-.573-.025-7.074-.326-14.134-.967-21.181a184.037,184.037,0,0,0-2.911-20.205A120.351,120.351,0,0,0,29.16,34.134c-.065-.166-.138-.33-.269-.644-.172.451-.326.78-.425,1.124a59.326,59.326,0,0,0-2.228,12.1c-.008.1-.012.206-.022.308-.144,1.56-1.116,2.1-2.523,1.376a8.312,8.312,0,0,1-3.821-4.188,14.719,14.719,0,0,1-1.156-7.765c.251-2.208.815-4.38,1.244-6.567.038-.194.1-.383.185-.72-.49.183-.865.31-1.231.459A56.666,56.666,0,0,0,3.552,39.076c-.176.15-.347.307-.524.455a1.486,1.486,0,0,1-2.557-.69,8.2,8.2,0,0,1,.1-5.736,16.8,16.8,0,0,1,5.67-7.355,26.693,26.693,0,0,1,7.844-4.364c1.027-.363,1.814-.1,2.133.719.332.85-.1,1.6-1.15,2A21.541,21.541,0,0,0,4.709,31.554a20.594,20.594,0,0,0-1.672,3.521,2.561,2.561,0,0,0-.064.656c7.177-5.654,14.915-9.835,24.135-11.418-.934-.681-1.652-1.243-2.409-1.75A50.419,50.419,0,0,0,6.334,15.3c-1.56-.315-3.143-.512-4.717-.749A1.452,1.452,0,0,1,.395,12.267,7.886,7.886,0,0,1,4.52,8.5a14.954,14.954,0,0,1,7.4-1.07A26.088,26.088,0,0,1,24.2,11.575c.578.377,1.132.792,1.7,1.187.015.011.05-.005.121-.016a17.015,17.015,0,0,1,2.893-6.876A13.086,13.086,0,0,1,37.45.133,8.384,8.384,0,0,1,42,.575a1.461,1.461,0,0,1,.5,2.614A34.6,34.6,0,0,0,34.692,14c-.754,1.672-1.3,3.436-1.946,5.159l.2.11a1.406,1.406,0,0,0,.294-.164c4.131-3.816,9.116-5.08,14.585-4.855a21.68,21.68,0,0,1,10.323,2.734,9.509,9.509,0,0,1,4.867,5.987,6.764,6.764,0,0,1,.181,1.294,1.461,1.461,0,0,1-1.919,1.555c-2.794-.557-5.579-1.181-8.394-1.6a41.42,41.42,0,0,0-8.946-.29c.661.574,1.2,1.023,1.72,1.5,2.6,2.394,4.716,5.1,5.435,8.665a7.689,7.689,0,0,1-.409,4.616c-.6,1.413-1.663,1.638-2.76.55A58.708,58.708,0,0,0,38.169,31.5c-.19-.121-.394-.221-.648-.363l4.155,11.47C48.371,41.389,54.7,42,60.285,46.635c-.181-.745-.331-1.5-.55-2.232a30.673,30.673,0,0,0-5.581-10.478c-.452-.563-.861-1.116-.574-1.878s.959-.927,1.673-1.026c3.483-.487,6.226.943,8.517,3.386A14.914,14.914,0,0,1,67.629,43.4c.252-.132.469-.241.683-.358a18.8,18.8,0,0,1,14.222-1.923,8.349,8.349,0,0,1,6.075,5c.561,1.411-.1,2.363-1.611,2.315a42.676,42.676,0,0,0-12.292,1.353c-.358.094-.709.211-.927.276,1.7.869,3.508,1.613,5.123,2.653a15.924,15.924,0,0,1,6.678,8.042,8.27,8.27,0,0,1-.091,6.386c-.747,1.671-1.856,1.812-3.029.416a39.683,39.683,0,0,0-9.835-8.464c-.215-.131-.442-.242-.739-.4.131,1.4.308,2.715.366,4.032a15.15,15.15,0,0,1-2.266,9.5,7,7,0,0,1-3.576,2.806c-1.445.493-2.346-.185-2.234-1.71a43.75,43.75,0,0,0-.455-9.379c-.013-.093-.037-.184-.055-.276M29.291,27.117c.1.239.2.47.3.7.572,1.291,1.178,2.568,1.712,3.874a120.473,120.473,0,0,1,6.244,21.17,164.368,164.368,0,0,1,3.133,22.111c.457,6.664.591,13.349.869,20.026.012.272.031.544.047.809h6.27c-.178-2.168-.31-4.271-.532-6.364-.448-4.215-.822-8.443-1.451-12.632q-1.248-8.3-2.858-16.548a140.133,140.133,0,0,0-7.139-25.315c-1.076-2.686-2.457-5.25-3.727-7.856a.87.87,0,0,0-.648-.446c-.729.093-1.443.3-2.221.473M63.835,55.684a3.8,3.8,0,0,1-1.1-.242c-.9-.563-1.393-.152-1.781.642a4.424,4.424,0,0,1-.3.45,76.945,76.945,0,0,0-6.978,13.8,1.486,1.486,0,0,1-1.988,1.046,1.441,1.441,0,0,1-.715-2.059c1.523-3.339,3.081-6.661,4.627-9.988.11-.238.23-.47.431-.879A47.712,47.712,0,0,0,47.5,63.611a1.274,1.274,0,0,0-.512,1.438c.765,4.714,1.613,9.42,2.194,14.159.649,5.3,1.041,10.635,1.56,15.954a2.642,2.642,0,0,0,.281.694,2.315,2.315,0,0,0,.39-.623c1.22-5.092,2.331-10.213,3.654-15.277A137.259,137.259,0,0,1,62.186,59.3c.525-1.192,1.079-2.37,1.648-3.617M4.394,11.957c8.779,1.484,16.85,4.274,23.99,9.521a16.882,16.882,0,0,0-1.3-2.862,14.887,14.887,0,0,0-6.4-5.738A21.679,21.679,0,0,0,8.62,10.415a8.168,8.168,0,0,0-4.227,1.543M59.678,22.39a3.516,3.516,0,0,0-.491-.741,20.934,20.934,0,0,0-3.131-2.439,20.257,20.257,0,0,0-10.838-2.037,15.5,15.5,0,0,0-8.868,3.119c-.821.63-1.542,1.39-2.309,2.091l.116.2c8.437-2.374,16.9-2.056,25.522-.191M23.493,44.534a60.882,60.882,0,0,1,3.478-14.5c.352-.983-.358-1.6-.748-2.3-.106-.19-.811-.069-1.239-.047a1.685,1.685,0,0,0-1.669,1.4c-.279,1.013-.711,1.984-.974,3a18.537,18.537,0,0,0-.288,9.593,6.87,6.87,0,0,0,1.441,2.848M34.7,25.394c-.031.1-.063.2-.095.3a5.945,5.945,0,0,0,1.115,1.027,61.911,61.911,0,0,1,12.05,8.4,6.441,6.441,0,0,0,.54.377,7.419,7.419,0,0,0-1.2-3.816,20.222,20.222,0,0,0-7.487-7.064.828.828,0,0,0-.5-.153c-1.476.3-2.947.617-4.419.931M65.53,50.281a42.85,42.85,0,0,1,18.932-4.913c-2.8-2.058-5.953-2.243-9.215-1.714-4.258.691-7.767,2.525-9.717,6.627m1.837,3.145A39.116,39.116,0,0,1,83.141,63.9c.547-6.148-9.387-12.7-15.774-10.473M59.53,50.571l.183-.123a28.807,28.807,0,0,0-2.785-2.582c-3.973-2.841-8.466-3.31-13.159-2.648-1.343.189-1.274.216-.985,1.558.173.8.547.991,1.306,1a41.4,41.4,0,0,1,9.236,1.045c2.088.5,4.137,1.162,6.2,1.751M30.187,17.9a37.339,37.339,0,0,1,8.25-14.934,9.1,9.1,0,0,0-2.466.62c-3.664,1.7-5.733,4.728-6.8,8.5-.572,2.017-.874,4.06,1.018,5.816M67.227,71.1c.342-.508.576-.8.756-1.13a11.8,11.8,0,0,0,1.334-4.939,21.294,21.294,0,0,0-.821-7.542c-.164-.566-1.541-1.3-1.74-.934-.448.827-1.146,1.568-.97,2.663.44,2.734.855,5.473,1.219,8.218.15,1.13.143,2.282.221,3.663M46.894,60.3a1.224,1.224,0,0,0,.275-.065A50.111,50.111,0,0,1,58.36,54.322a4.645,4.645,0,0,0,.864-.651c-1.385-.486-2.534-.9-3.692-1.284a.808.808,0,0,0-.508.085,16.531,16.531,0,0,0-6.65,4.832,7.165,7.165,0,0,0-1.48,2.991M58.171,33.977l-.17.2A33.234,33.234,0,0,1,63.5,47.62c.448-.557,1.033-1.107,1.1-1.712a11.4,11.4,0,0,0-4.39-10.817,13.767,13.767,0,0,0-2.039-1.115M45.291,56.587A18.006,18.006,0,0,1,50.7,51.436l-.055-.267-6.791-.586,1.434,6" transform="translate(0.001 -0.001)" fill="#0c3c4d" stroke="#0c3c4d" stroke-width="0.5"/>
  </symbol>

</svg>