<svg xmlns="http://www.w3.org/2000/svg" xmlns:xlink="http://www.w3.org/1999/xlink" width="33.402" height="32.171" viewBox="0 0 33.402 32.171">
  <defs>
    <clipPath id="clip-path">
      <rect id="Rectangle_349" data-name="Rectangle 349" width="33.402" height="32.171" fill="#0c3c4d"/>
    </clipPath>
  </defs>
  <g id="Taxi_icon" data-name="Taxi icon" transform="translate(0)">
    <g id="Group_305" data-name="Group 305" transform="translate(0)" clip-path="url(#clip-path)">
      <path id="Path_1643" data-name="Path 1643" d="M29.6,13.849l-.06-.137H32.7a.7.7,0,0,0,0-1.4H29.008a.668.668,0,0,0-.071.007L27.19,8.3l-.016-.034a5.85,5.85,0,0,0-5-3.335l-.85-3.4A1.9,1.9,0,0,0,19.409,0H13.994a2.035,2.035,0,0,0-1.912,1.516L11.23,4.926A5.531,5.531,0,0,0,6.212,8.3L4.469,12.308H.7a.7.7,0,0,0,0,1.4H3.858l-.059.136A5.631,5.631,0,0,0,0,19.163v4.923a3.157,3.157,0,0,0,1.231,2.5v2.424a3.167,3.167,0,0,0,3.164,3.163H6.856a3.167,3.167,0,0,0,3.163-3.163V27.249H23.383v1.759a3.167,3.167,0,0,0,3.164,3.163h2.461a3.167,3.167,0,0,0,3.163-3.163V26.585a3.157,3.157,0,0,0,1.231-2.5V19.163a5.63,5.63,0,0,0-3.8-5.315M13.444,1.858a.632.632,0,0,1,.55-.453h5.415a.506.506,0,0,1,.542.42c0,.011,0,.022.007.033l.766,3.066H12.678Zm-5.943,7a4.184,4.184,0,0,1,3.785-2.528H21.993A4.5,4.5,0,0,1,25.91,8.877l2.027,4.661H5.465ZM8.615,29.009a1.761,1.761,0,0,1-1.759,1.759H4.394a1.761,1.761,0,0,1-1.76-1.759V27.249h5.98Zm3.051-3.163L12.9,23.284l.013-.029a1.621,1.621,0,0,1,1.57-.929h4.308a1.621,1.621,0,0,1,1.57.929c.007.016.014.031.022.046L21.7,25.845Zm19.1,1.4v1.759a1.761,1.761,0,0,1-1.759,1.759H26.547a1.761,1.761,0,0,1-1.76-1.759V27.249h5.98ZM32,24.086a1.761,1.761,0,0,1-1.759,1.759H23.282l-1.639-3.169a3.024,3.024,0,0,0-2.849-1.754H14.486a3.023,3.023,0,0,0-2.854,1.764l-1.525,3.159H3.164A1.761,1.761,0,0,1,1.4,24.086V19.163a4.226,4.226,0,0,1,4.221-4.221H27.777A4.226,4.226,0,0,1,32,19.163Z" transform="translate(0 -0.001)" fill="#0c3c4d"/>
      <path id="Path_1644" data-name="Path 1644" d="M16.226,63.106H12.534a.7.7,0,0,0,0,1.4h3.692a.7.7,0,1,0,0-1.4" transform="translate(-8.14 -43.415)" fill="#0c3c4d"/>
      <path id="Path_1645" data-name="Path 1645" d="M83.276,63.106H79.584a.7.7,0,1,0,0,1.4h3.692a.7.7,0,1,0,0-1.4" transform="translate(-54.268 -43.415)" fill="#0c3c4d"/>
    </g>
  </g>
</svg>
