<svg version="1.2" xmlns="http://www.w3.org/2000/svg" viewBox="0 0 22 17" width="22" height="17"><style>.a{fill:#0c3c4d}</style><path class="a" d="m21.6 0.8l-0.4-0.5q-0.2-0.1-0.4-0.2-0.2-0.1-0.4-0.1-0.3 0-0.5 0.1-0.2 0.1-0.4 0.2l-12.3 12.4-4.8-4.8q-0.1-0.2-0.3-0.2-0.3-0.1-0.5-0.1-0.2 0-0.4 0.1-0.2 0-0.4 0.2l-0.5 0.4q-0.1 0.2-0.2 0.4-0.1 0.2-0.1 0.5 0 0.2 0.1 0.4 0.1 0.2 0.2 0.4l6.1 6q0.1 0.1 0.2 0.2 0.1 0.1 0.2 0.1 0.1 0 0.2 0.1 0.1 0 0.2 0 0.1 0 0.2 0 0.1-0.1 0.3-0.1 0.1 0 0.2-0.1 0.1-0.1 0.1-0.2l13.6-13.6q0.2-0.1 0.3-0.3 0.1-0.3 0.1-0.5 0-0.2-0.1-0.4-0.1-0.2-0.3-0.4z"/></svg>