<svg xmlns="http://www.w3.org/2000/svg" xmlns:xlink="http://www.w3.org/1999/xlink" width="43.918" height="31.545" viewBox="0 0 43.918 31.545">
  <defs>
    <clipPath id="clip-path">
      <rect id="Rectangle_346" data-name="Rectangle 346" width="43.918" height="31.545" fill="#0c3c4d"/>
    </clipPath>
  </defs>
  <g id="Umbrella_icon" data-name="Umbrella icon" transform="translate(0)">
    <g id="Group_299" data-name="Group 299" transform="translate(0)" clip-path="url(#clip-path)">
      <path id="Path_1610" data-name="Path 1610" d="M26.047,12.015c-2.441-1.284-4.875-2.539-6.014-5.164a14.069,14.069,0,0,1-1.926.464,5.012,5.012,0,0,1-5.347-3.8,3.245,3.245,0,0,1,.366-1.963c.047-.1.266-.149.408-.154,2.07-.07,4.14-.126,6.211-.19,3.548-.11,7.1-.227,10.645-.325a.514.514,0,0,0,.559-.4l0-.007a.7.7,0,0,1,.929-.421L31.9.059a.706.706,0,0,1,.389.916c-.048.119-.1.235-.158.348-.135.258-.032.4.134.576q3.413,3.566,6.819,7.139,2.349,2.461,4.7,4.922a.331.331,0,0,1,.048.5A4.066,4.066,0,0,1,41.6,16.406a4.928,4.928,0,0,1-4.217-.587,4.367,4.367,0,0,1-2.122-2.636,16.131,16.131,0,0,1-1.792.387,12.258,12.258,0,0,1-4.773-.6c-.424-.125-.843-.267-1.324-.42L22.086,25.314c6.41.49,12.6,1.565,18.2,4.907a.706.706,0,0,1,.222,1.009l-.008.011a.7.7,0,0,1-.936.207c-.508-.3-1-.59-1.511-.857a32.454,32.454,0,0,0-8.437-2.866,49.085,49.085,0,0,0-7.653-.98,56.594,56.594,0,0,0-7.944.135,45.026,45.026,0,0,0-9.177,1.682c-1.313.4-2.6.891-3.924,1.369a.682.682,0,0,1-.847-.348l-.006-.012A.683.683,0,0,1,.4,28.658c.123-.057.245-.112.368-.164a40.753,40.753,0,0,1,9.783-2.632,54.811,54.811,0,0,1,9.655-.59c.315.008.422-.135.526-.387q1.808-4.388,3.631-8.771.756-1.824,1.511-3.649c.06-.145.113-.293.174-.451m8.448-1.827c-.069-.177-.092-.257-.13-.331C33.206,7.573,32.041,5.292,30.895,3c-.137-.273-.268-.307-.537-.218-2.056.68-4.117,1.346-6.175,2.019-.461.151-.919.311-1.479.5l11.792,4.884m.124,1.589L21.48,6.335l-.071.084A2.9,2.9,0,0,0,21.7,7a11.271,11.271,0,0,0,1.165,1.322A15.641,15.641,0,0,0,28.1,11.282a12.576,12.576,0,0,0,5.052.9,2.759,2.759,0,0,0,1.467-.4M16.666,2.727a1.067,1.067,0,0,0,.15.129c1.226.512,2.45,1.028,3.683,1.524a.744.744,0,0,0,.46-.024c1.23-.391,2.457-.793,3.684-1.194q1.044-.34,2.086-.684L26.712,2.4l-10.046.332M40.414,12.64l.067-.078-6.5-6.81a.18.18,0,0,0-.012.178q1.242,2.455,2.489,4.908a.559.559,0,0,0,.245.254c1.233.523,2.472,1.034,3.709,1.548m-21.085-7.2L14.205,3.326c.307,2.017,3.388,3.293,5.124,2.117m17.372,7.2-.076.1a3.361,3.361,0,0,0,2.319,2.251,3.154,3.154,0,0,0,2.83-.253l-5.073-2.1" transform="translate(0 0)" fill="#0c3c4d"/>
    </g>
  </g>
</svg>
